<svg xmlns="http://www.w3.org/2000/svg" xmlns:xlink="http://www.w3.org/1999/xlink" width="600" zoomAndPan="magnify" viewBox="0 0 450 112.499997" height="150" preserveAspectRatio="xMidYMid meet" version="1.0"><defs><g/><clipPath id="807c4c934b"><path d="M 40 32 L 79 32 L 79 76 L 40 76 Z M 40 32 " clip-rule="nonzero"/></clipPath><clipPath id="0cdc59257d"><path d="M 43.621094 23.695312 L 79.585938 33.710938 L 66.167969 81.902344 L 30.203125 71.890625 Z M 43.621094 23.695312 " clip-rule="nonzero"/></clipPath><clipPath id="a0a58e6f22"><path d="M 43.621094 23.695312 L 79.585938 33.710938 L 66.167969 81.902344 L 30.203125 71.890625 Z M 43.621094 23.695312 " clip-rule="nonzero"/></clipPath><clipPath id="09dd640584"><path d="M 43.777344 23.742188 L 79.753906 33.757812 L 66.335938 81.949219 L 30.359375 71.933594 Z M 43.777344 23.742188 " clip-rule="nonzero"/></clipPath><clipPath id="b204f64991"><path d="M 43.777344 23.742188 L 79.425781 33.664062 L 66.007812 81.859375 L 30.359375 71.933594 Z M 43.777344 23.742188 " clip-rule="nonzero"/></clipPath><clipPath id="fd70fc5ff4"><path d="M 14 43 L 55 43 L 55 99 L 14 99 Z M 14 43 " clip-rule="nonzero"/></clipPath><clipPath id="3d79debac1"><path d="M 25.753906 39.371094 L 68.191406 51.183594 L 54.574219 100.097656 L 12.132812 88.285156 Z M 25.753906 39.371094 " clip-rule="nonzero"/></clipPath><clipPath id="d993306907"><path d="M 25.753906 39.371094 L 68.191406 51.183594 L 54.574219 100.097656 L 12.132812 88.285156 Z M 25.753906 39.371094 " clip-rule="nonzero"/></clipPath><clipPath id="096badade2"><path d="M 17 62 L 52 62 L 52 97 L 17 97 Z M 17 62 " clip-rule="nonzero"/></clipPath><clipPath id="c097c1421f"><path d="M 25.753906 39.371094 L 68.191406 51.183594 L 54.574219 100.097656 L 12.132812 88.285156 Z M 25.753906 39.371094 " clip-rule="nonzero"/></clipPath><clipPath id="5d30422b92"><path d="M 25.753906 39.371094 L 68.191406 51.183594 L 54.574219 100.097656 L 12.132812 88.285156 Z M 25.753906 39.371094 " clip-rule="nonzero"/></clipPath><clipPath id="6ecdad0a7a"><path d="M 36 47 L 51 47 L 51 68 L 36 68 Z M 36 47 " clip-rule="nonzero"/></clipPath><clipPath id="4d07f5f816"><path d="M 25.753906 39.371094 L 68.191406 51.183594 L 54.574219 100.097656 L 12.132812 88.285156 Z M 25.753906 39.371094 " clip-rule="nonzero"/></clipPath><clipPath id="e48469535b"><path d="M 25.753906 39.371094 L 68.191406 51.183594 L 54.574219 100.097656 L 12.132812 88.285156 Z M 25.753906 39.371094 " clip-rule="nonzero"/></clipPath><clipPath id="2bb5e78124"><path d="M 40 45 L 53 45 L 53 51 L 40 51 Z M 40 45 " clip-rule="nonzero"/></clipPath><clipPath id="0d47657124"><path d="M 25.753906 39.371094 L 68.191406 51.183594 L 54.574219 100.097656 L 12.132812 88.285156 Z M 25.753906 39.371094 " clip-rule="nonzero"/></clipPath><clipPath id="5cc6bab5ca"><path d="M 25.753906 39.371094 L 68.191406 51.183594 L 54.574219 100.097656 L 12.132812 88.285156 Z M 25.753906 39.371094 " clip-rule="nonzero"/></clipPath><clipPath id="d74080fbe0"><path d="M 20 68 L 51 68 L 51 95 L 20 95 Z M 20 68 " clip-rule="nonzero"/></clipPath><clipPath id="6cd144bd3e"><path d="M 25.753906 39.371094 L 68.191406 51.183594 L 54.574219 100.097656 L 12.132812 88.285156 Z M 25.753906 39.371094 " clip-rule="nonzero"/></clipPath><clipPath id="332ce22cfd"><path d="M 25.753906 39.371094 L 68.191406 51.183594 L 54.574219 100.097656 L 12.132812 88.285156 Z M 25.753906 39.371094 " clip-rule="nonzero"/></clipPath><clipPath id="608cf2e9ab"><path d="M 32 78 L 39 78 L 39 84 L 32 84 Z M 32 78 " clip-rule="nonzero"/></clipPath><clipPath id="20402958e3"><path d="M 25.753906 39.371094 L 68.191406 51.183594 L 54.574219 100.097656 L 12.132812 88.285156 Z M 25.753906 39.371094 " clip-rule="nonzero"/></clipPath><clipPath id="23cde38ef9"><path d="M 25.753906 39.371094 L 68.191406 51.183594 L 54.574219 100.097656 L 12.132812 88.285156 Z M 25.753906 39.371094 " clip-rule="nonzero"/></clipPath><clipPath id="e78c39f570"><path d="M 31 75 L 35 75 L 35 79 L 31 79 Z M 31 75 " clip-rule="nonzero"/></clipPath><clipPath id="15b63bfe30"><path d="M 25.753906 39.371094 L 68.191406 51.183594 L 54.574219 100.097656 L 12.132812 88.285156 Z M 25.753906 39.371094 " clip-rule="nonzero"/></clipPath><clipPath id="d6e0683d24"><path d="M 25.753906 39.371094 L 68.191406 51.183594 L 54.574219 100.097656 L 12.132812 88.285156 Z M 25.753906 39.371094 " clip-rule="nonzero"/></clipPath><clipPath id="8ed47ce878"><path d="M 40 74 L 43 74 L 43 77 L 40 77 Z M 40 74 " clip-rule="nonzero"/></clipPath><clipPath id="f194a358d9"><path d="M 25.753906 39.371094 L 68.191406 51.183594 L 54.574219 100.097656 L 12.132812 88.285156 Z M 25.753906 39.371094 " clip-rule="nonzero"/></clipPath><clipPath id="fa5e78deb8"><path d="M 25.753906 39.371094 L 68.191406 51.183594 L 54.574219 100.097656 L 12.132812 88.285156 Z M 25.753906 39.371094 " clip-rule="nonzero"/></clipPath><clipPath id="3d4ab169a6"><path d="M 43 49 L 49 49 L 49 65 L 43 65 Z M 43 49 " clip-rule="nonzero"/></clipPath><clipPath id="8784b32ad3"><path d="M 25.753906 39.371094 L 68.191406 51.183594 L 54.574219 100.097656 L 12.132812 88.285156 Z M 25.753906 39.371094 " clip-rule="nonzero"/></clipPath><clipPath id="aa24c22529"><path d="M 25.753906 39.371094 L 68.191406 51.183594 L 54.574219 100.097656 L 12.132812 88.285156 Z M 25.753906 39.371094 " clip-rule="nonzero"/></clipPath><clipPath id="0aeeea5488"><path d="M 49 29 L 55 29 L 55 35 L 49 35 Z M 49 29 " clip-rule="nonzero"/></clipPath><clipPath id="608ac94ff3"><path d="M 50.191406 28.878906 L 55.226562 30.28125 L 53.828125 35.316406 L 48.792969 33.914062 Z M 50.191406 28.878906 " clip-rule="nonzero"/></clipPath><clipPath id="de79d4f44b"><path d="M 50.191406 28.878906 L 55.226562 30.28125 L 53.828125 35.316406 L 48.792969 33.914062 Z M 50.191406 28.878906 " clip-rule="nonzero"/></clipPath><clipPath id="aff04f8916"><path d="M 39 16 L 49 16 L 49 26 L 39 26 Z M 39 16 " clip-rule="nonzero"/></clipPath><clipPath id="9ee0f76420"><path d="M 41 15.941406 L 49.632812 18.34375 L 47.230469 26.976562 L 38.597656 24.574219 Z M 41 15.941406 " clip-rule="nonzero"/></clipPath><clipPath id="b445597f6e"><path d="M 41 15.941406 L 49.632812 18.34375 L 47.230469 26.976562 L 38.597656 24.574219 Z M 41 15.941406 " clip-rule="nonzero"/></clipPath><clipPath id="c877ae19df"><path d="M 52 12 L 61 12 L 61 21 L 52 21 Z M 52 12 " clip-rule="nonzero"/></clipPath><clipPath id="69a22054c7"><path d="M 53.703125 12.035156 L 60.898438 14.039062 L 58.894531 21.234375 L 51.703125 19.230469 Z M 53.703125 12.035156 " clip-rule="nonzero"/></clipPath><clipPath id="931eee22bf"><path d="M 53.703125 12.035156 L 60.898438 14.039062 L 58.894531 21.234375 L 51.703125 19.230469 Z M 53.703125 12.035156 " clip-rule="nonzero"/></clipPath></defs><g clip-path="url(#807c4c934b)"><g clip-path="url(#0cdc59257d)"><g clip-path="url(#a0a58e6f22)"><g clip-path="url(#09dd640584)"><g clip-path="url(#b204f64991)"><path fill="#0cc0df" d="M 43.746094 35.714844 C 44.765625 35.996094 45.359375 37.050781 45.074219 38.078125 C 44.785156 39.105469 43.734375 39.703125 42.714844 39.417969 C 41.691406 39.132812 41.097656 38.078125 41.386719 37.050781 C 41.671875 36.027344 42.722656 35.429688 43.746094 35.714844 Z M 60.074219 38.925781 C 62.445312 39.585938 63.835938 42.0625 63.171875 44.449219 C 62.507812 46.832031 60.039062 48.234375 57.667969 47.574219 C 55.292969 46.914062 53.902344 44.4375 54.566406 42.054688 C 55.230469 39.667969 57.699219 38.265625 60.074219 38.925781 Z M 76.007812 34.046875 C 77.023438 34.328125 77.621094 35.382812 77.335938 36.410156 C 77.050781 37.4375 75.992188 38.035156 74.976562 37.75 C 74.410156 37.59375 73.980469 37.191406 73.746094 36.691406 C 73.746094 36.691406 73.75 36.675781 73.738281 36.671875 L 73.730469 36.65625 C 73.570312 36.265625 73.527344 35.816406 73.648438 35.382812 C 73.933594 34.359375 74.984375 33.761719 76.007812 34.046875 Z M 63.523438 59.855469 C 65.894531 60.515625 67.28125 62.992188 66.617188 65.378906 C 65.953125 67.761719 63.484375 69.164062 61.113281 68.503906 C 58.742188 67.84375 57.347656 65.363281 58.011719 62.980469 C 58.675781 60.597656 61.148438 59.195312 63.523438 59.855469 Z M 44.835938 74.625 C 43.816406 74.339844 43.222656 73.28125 43.511719 72.253906 C 43.796875 71.226562 44.847656 70.628906 45.871094 70.914062 C 46.386719 71.058594 46.804688 71.414062 47.035156 71.851562 C 47.042969 71.867188 47.042969 71.882812 47.050781 71.898438 C 47.046875 71.910156 47.058594 71.914062 47.070312 71.925781 C 47.261719 72.324219 47.328125 72.808594 47.199219 73.28125 C 46.910156 74.308594 45.855469 74.90625 44.835938 74.625 Z M 42.367188 40.65625 C 43.769531 41.042969 45.207031 40.417969 45.933594 39.222656 L 53.296875 41.898438 C 52.566406 44.902344 54.332031 47.976562 57.308594 48.808594 C 57.921875 48.976562 58.550781 49.019531 59.15625 48.988281 L 60.738281 58.65625 C 58.882812 59.191406 57.332031 60.632812 56.769531 62.648438 C 56.433594 63.859375 56.523438 65.09375 56.921875 66.191406 L 47.820312 70.792969 C 47.421875 70.28125 46.863281 69.871094 46.183594 69.683594 C 44.488281 69.210938 42.722656 70.214844 42.25 71.917969 C 41.773438 73.625 42.769531 75.390625 44.464844 75.863281 C 46.160156 76.332031 47.925781 75.335938 48.398438 73.628906 C 48.5625 73.046875 48.535156 72.46875 48.390625 71.9375 L 57.488281 67.335938 C 58.21875 68.46875 59.335938 69.367188 60.738281 69.757812 C 63.785156 70.605469 66.964844 68.800781 67.816406 65.734375 C 68.671875 62.671875 66.882812 59.484375 63.832031 58.636719 C 63.21875 58.464844 62.59375 58.425781 61.988281 58.453125 L 60.402344 48.789062 C 62.257812 48.253906 63.8125 46.808594 64.375 44.792969 C 64.683594 43.6875 64.636719 42.566406 64.3125 41.53125 L 72.871094 37.75 C 73.304688 38.324219 73.894531 38.78125 74.632812 38.988281 C 76.324219 39.457031 78.089844 38.457031 78.566406 36.753906 C 79.039062 35.046875 78.046875 33.28125 76.351562 32.808594 C 74.652344 32.335938 72.890625 33.335938 72.417969 35.042969 C 72.273438 35.558594 72.273438 36.082031 72.386719 36.578125 L 63.84375 40.363281 C 63.121094 39.109375 61.929688 38.113281 60.433594 37.695312 C 57.738281 36.945312 54.945312 38.269531 53.746094 40.707031 L 46.386719 38.03125 C 46.613281 36.457031 45.664062 34.914062 44.101562 34.480469 C 42.402344 34.007812 40.640625 35.007812 40.167969 36.714844 C 39.691406 38.417969 40.667969 40.183594 42.367188 40.65625 " fill-opacity="1" fill-rule="nonzero"/></g></g></g></g></g><g clip-path="url(#fd70fc5ff4)"><g clip-path="url(#3d79debac1)"><g clip-path="url(#d993306907)"><path fill="#f652a0" d="M 41.28125 43.695312 C 40.449219 43.460938 39.503906 44.253906 39.269531 45.097656 L 39.066406 45.820312 C 38.902344 46.414062 39.097656 47.023438 39.519531 47.410156 C 39.484375 47.507812 39.449219 47.605469 39.421875 47.703125 L 35.425781 62.054688 C 35.085938 62.417969 34.746094 62.796875 34.386719 63.171875 L 15.988281 82.082031 C 13.007812 85.1875 15.878906 89.328125 18.078125 89.941406 L 48.582031 98.433594 C 50.78125 99.046875 55.402344 97.070312 54.433594 92.785156 L 48.457031 67.089844 C 48.34375 66.582031 48.25 66.082031 48.144531 65.59375 L 52.136719 51.246094 C 52.167969 51.144531 52.1875 51.042969 52.207031 50.941406 C 52.769531 50.828125 53.25 50.410156 53.417969 49.816406 L 53.617188 49.09375 C 53.851562 48.25 53.457031 47.082031 52.621094 46.851562 Z M 41.28125 43.695312 " fill-opacity="1" fill-rule="nonzero"/></g></g></g><g clip-path="url(#096badade2)"><g clip-path="url(#c097c1421f)"><g clip-path="url(#5d30422b92)"><path fill="#ffffff" d="M 39.589844 62.648438 L 44.292969 63.957031 C 46.164062 64.476562 46.285156 66.410156 46.714844 68.332031 L 51.804688 91.15625 C 52.835938 95.765625 48.691406 96.515625 46.820312 95.992188 L 20.871094 88.769531 C 18.996094 88.246094 16.191406 85.09375 19.097656 82.050781 L 35.253906 65.140625 C 36.613281 63.71875 37.71875 62.125 39.589844 62.644531 Z M 39.589844 62.648438 " fill-opacity="1" fill-rule="nonzero"/></g></g></g><g clip-path="url(#6ecdad0a7a)"><g clip-path="url(#4d07f5f816)"><g clip-path="url(#e48469535b)"><path fill="#ffffff" d="M 41.269531 47.015625 L 50.921875 49.703125 L 45.941406 67.589844 L 36.289062 64.902344 Z M 41.269531 47.015625 " fill-opacity="1" fill-rule="nonzero"/></g></g></g><g clip-path="url(#2bb5e78124)"><g clip-path="url(#0d47657124)"><g clip-path="url(#5cc6bab5ca)"><path fill="#ffffff" d="M 40.53125 46.347656 L 40.730469 45.636719 C 40.78125 45.457031 40.886719 45.320312 41.046875 45.226562 C 41.210938 45.136719 41.378906 45.113281 41.558594 45.164062 L 51.613281 47.964844 C 51.792969 48.011719 51.925781 48.121094 52.019531 48.28125 C 52.109375 48.445312 52.128906 48.617188 52.078125 48.796875 L 51.882812 49.503906 C 51.832031 49.6875 51.726562 49.824219 51.5625 49.914062 C 51.402344 50.007812 51.230469 50.027344 51.054688 49.980469 L 40.996094 47.179688 C 40.816406 47.128906 40.683594 47.023438 40.59375 46.859375 C 40.503906 46.699219 40.480469 46.527344 40.53125 46.347656 Z M 40.53125 46.347656 " fill-opacity="1" fill-rule="nonzero"/></g></g></g><g clip-path="url(#d74080fbe0)"><g clip-path="url(#6cd144bd3e)"><g clip-path="url(#332ce22cfd)"><path fill="#f652a0" d="M 46.363281 71.386719 L 50.304688 90.050781 C 51.167969 94.136719 47.550781 94.789062 45.894531 94.328125 L 22.953125 87.941406 C 21.300781 87.480469 18.8125 84.6875 21.390625 82.003906 L 34.007812 68.851562 C 40.542969 73.816406 45.472656 66.453125 46.363281 71.390625 Z M 46.363281 71.386719 " fill-opacity="1" fill-rule="nonzero"/></g></g></g><g clip-path="url(#608cf2e9ab)"><g clip-path="url(#20402958e3)"><g clip-path="url(#23cde38ef9)"><path fill="#ffffff" d="M 37.90625 81.804688 C 37.480469 83.335938 35.90625 84.234375 34.394531 83.8125 C 32.882812 83.390625 32 81.808594 32.425781 80.277344 C 32.851562 78.75 34.425781 77.851562 35.9375 78.269531 C 37.449219 78.691406 38.332031 80.273438 37.90625 81.804688 Z M 37.90625 81.804688 " fill-opacity="1" fill-rule="nonzero"/></g></g></g><g clip-path="url(#e78c39f570)"><g clip-path="url(#15b63bfe30)"><g clip-path="url(#d6e0683d24)"><path fill="#ffffff" d="M 34.933594 77.40625 C 34.683594 78.308594 33.753906 78.839844 32.859375 78.59375 C 31.964844 78.34375 31.445312 77.410156 31.699219 76.503906 C 31.949219 75.601562 32.878906 75.070312 33.773438 75.316406 C 34.664062 75.566406 35.1875 76.5 34.933594 77.40625 Z M 34.933594 77.40625 " fill-opacity="1" fill-rule="nonzero"/></g></g></g><g clip-path="url(#8ed47ce878)"><g clip-path="url(#f194a358d9)"><g clip-path="url(#fa5e78deb8)"><path fill="#ffffff" d="M 42.210938 75.996094 C 42.0625 76.53125 41.515625 76.84375 40.988281 76.695312 C 40.460938 76.550781 40.152344 76 40.300781 75.464844 C 40.449219 74.933594 40.996094 74.617188 41.523438 74.765625 C 42.050781 74.914062 42.359375 75.464844 42.210938 75.996094 Z M 42.210938 75.996094 " fill-opacity="1" fill-rule="nonzero"/></g></g></g><g clip-path="url(#3d4ab169a6)"><g clip-path="url(#8784b32ad3)"><g clip-path="url(#aa24c22529)"><path fill="#f652a0" d="M 48.449219 49.414062 C 48.640625 49.46875 48.789062 49.582031 48.886719 49.757812 C 48.980469 49.933594 49.003906 50.117188 48.949219 50.3125 L 45.078125 64.214844 C 45.023438 64.410156 44.910156 64.554688 44.738281 64.65625 C 44.5625 64.753906 44.378906 64.777344 44.1875 64.722656 C 43.996094 64.671875 43.851562 64.554688 43.753906 64.382812 C 43.65625 64.207031 43.632812 64.019531 43.6875 63.828125 L 47.558594 49.925781 C 47.613281 49.730469 47.726562 49.582031 47.902344 49.484375 C 48.074219 49.382812 48.257812 49.359375 48.449219 49.414062 Z M 48.449219 49.414062 " fill-opacity="1" fill-rule="nonzero"/></g></g></g><g clip-path="url(#0aeeea5488)"><g clip-path="url(#608ac94ff3)"><g clip-path="url(#de79d4f44b)"><path fill="#f652a0" d="M 54.527344 32.796875 C 54.433594 33.132812 54.28125 33.433594 54.066406 33.707031 C 53.855469 33.980469 53.597656 34.203125 53.292969 34.371094 C 52.992188 34.542969 52.667969 34.648438 52.324219 34.691406 C 51.980469 34.734375 51.644531 34.707031 51.308594 34.613281 C 50.976562 34.519531 50.671875 34.367188 50.398438 34.15625 C 50.125 33.941406 49.90625 33.683594 49.734375 33.382812 C 49.5625 33.078125 49.457031 32.757812 49.414062 32.414062 C 49.375 32.070312 49.398438 31.730469 49.492188 31.394531 C 49.585938 31.0625 49.738281 30.757812 49.953125 30.484375 C 50.164062 30.210938 50.421875 29.992188 50.726562 29.820312 C 51.027344 29.648438 51.351562 29.542969 51.695312 29.503906 C 52.039062 29.460938 52.375 29.484375 52.710938 29.578125 C 53.042969 29.671875 53.347656 29.824219 53.621094 30.039062 C 53.894531 30.253906 54.117188 30.511719 54.285156 30.8125 C 54.457031 31.113281 54.5625 31.4375 54.605469 31.78125 C 54.644531 32.125 54.621094 32.464844 54.527344 32.796875 Z M 54.527344 32.796875 " fill-opacity="1" fill-rule="nonzero"/></g></g></g><g clip-path="url(#aff04f8916)"><g clip-path="url(#9ee0f76420)"><g clip-path="url(#b445597f6e)"><path fill="#f652a0" d="M 48.429688 22.660156 C 48.351562 22.945312 48.246094 23.21875 48.113281 23.480469 C 47.980469 23.742188 47.824219 23.988281 47.640625 24.222656 C 47.460938 24.453125 47.257812 24.664062 47.035156 24.855469 C 46.8125 25.046875 46.574219 25.214844 46.316406 25.359375 C 46.0625 25.503906 45.792969 25.625 45.511719 25.714844 C 45.234375 25.808594 44.949219 25.871094 44.65625 25.90625 C 44.363281 25.941406 44.070312 25.949219 43.777344 25.925781 C 43.484375 25.90625 43.195312 25.855469 42.914062 25.777344 C 42.628906 25.695312 42.355469 25.589844 42.09375 25.457031 C 41.832031 25.324219 41.585938 25.167969 41.351562 24.988281 C 41.121094 24.804688 40.910156 24.605469 40.71875 24.378906 C 40.527344 24.15625 40.359375 23.917969 40.214844 23.660156 C 40.070312 23.40625 39.949219 23.136719 39.859375 22.859375 C 39.765625 22.578125 39.703125 22.292969 39.667969 22 C 39.632812 21.710938 39.625 21.417969 39.648438 21.125 C 39.667969 20.828125 39.71875 20.542969 39.800781 20.257812 C 39.878906 19.976562 39.984375 19.703125 40.117188 19.4375 C 40.25 19.175781 40.40625 18.929688 40.585938 18.699219 C 40.769531 18.464844 40.972656 18.253906 41.195312 18.0625 C 41.417969 17.871094 41.65625 17.703125 41.914062 17.558594 C 42.167969 17.414062 42.4375 17.296875 42.714844 17.203125 C 42.996094 17.113281 43.28125 17.046875 43.574219 17.011719 C 43.867188 16.976562 44.15625 16.96875 44.453125 16.992188 C 44.746094 17.015625 45.03125 17.066406 45.316406 17.144531 C 45.601562 17.222656 45.871094 17.328125 46.136719 17.460938 C 46.398438 17.59375 46.644531 17.75 46.875 17.933594 C 47.109375 18.113281 47.320312 18.316406 47.511719 18.539062 C 47.703125 18.761719 47.871094 19 48.015625 19.257812 C 48.160156 19.511719 48.277344 19.78125 48.371094 20.0625 C 48.460938 20.339844 48.527344 20.625 48.5625 20.917969 C 48.597656 21.210938 48.605469 21.503906 48.582031 21.796875 C 48.558594 22.089844 48.507812 22.378906 48.429688 22.660156 Z M 48.429688 22.660156 " fill-opacity="1" fill-rule="nonzero"/></g></g></g><g clip-path="url(#c877ae19df)"><g clip-path="url(#69a22054c7)"><g clip-path="url(#931eee22bf)"><path fill="#f652a0" d="M 59.894531 17.636719 C 59.761719 18.113281 59.542969 18.546875 59.238281 18.9375 C 58.933594 19.328125 58.566406 19.644531 58.132812 19.886719 C 57.703125 20.128906 57.242188 20.28125 56.75 20.339844 C 56.257812 20.402344 55.773438 20.363281 55.296875 20.230469 C 54.820312 20.097656 54.386719 19.878906 54 19.574219 C 53.609375 19.269531 53.292969 18.902344 53.046875 18.46875 C 52.804688 18.039062 52.652344 17.578125 52.59375 17.085938 C 52.535156 16.59375 52.570312 16.109375 52.703125 15.632812 C 52.835938 15.15625 53.054688 14.722656 53.359375 14.332031 C 53.664062 13.945312 54.035156 13.628906 54.464844 13.382812 C 54.894531 13.140625 55.355469 12.988281 55.847656 12.929688 C 56.339844 12.871094 56.824219 12.90625 57.300781 13.039062 C 57.777344 13.171875 58.210938 13.390625 58.601562 13.695312 C 58.992188 14 59.308594 14.367188 59.550781 14.800781 C 59.792969 15.230469 59.945312 15.691406 60.003906 16.183594 C 60.066406 16.675781 60.027344 17.160156 59.894531 17.636719 Z M 59.894531 17.636719 " fill-opacity="1" fill-rule="nonzero"/></g></g></g><g fill="#0cc0df" fill-opacity="1"><g transform="translate(84.560464, 79.001258)"><g><path d="M 5.414062 -0.179688 C 10.351562 -0.457031 18.65625 -3.722656 25.007812 -5.574219 C 25.566406 -5.734375 25.722656 -5.875 25.722656 -6.410156 C 25.722656 -7.625 24.96875 -8.144531 24.011719 -8.144531 C 23.8125 -8.144531 23.59375 -8.125 23.375 -8.082031 C 17.441406 -6.890625 6.691406 -5.277344 5.414062 -5.277344 C 5.335938 -5.277344 5.277344 -5.277344 5.296875 -5.296875 C 7.464844 -8.941406 14.933594 -21.601562 15.710938 -28.53125 C 14.972656 -29.507812 12.464844 -31.738281 10.671875 -31.738281 C 9.796875 -31.738281 9.078125 -31.199219 8.820312 -29.765625 C 8.441406 -27.675781 -0.457031 -11.109375 -1.710938 -4.917969 C 4.378906 -0.476562 4.996094 -0.179688 5.375 -0.179688 Z M 5.414062 -0.179688 "/></g></g></g><g fill="#0cc0df" fill-opacity="1"><g transform="translate(107.993972, 79.001258)"><g><path d="M 15.730469 -9.914062 C 13.539062 -7.765625 9.714844 -4.082031 6.671875 -4.082031 C 5.15625 -4.082031 4.816406 -4.71875 4.816406 -5.753906 C 4.816406 -6.730469 5.039062 -7.1875 5.457031 -7.90625 C 8.917969 -9.316406 13.976562 -11.328125 13.976562 -15.789062 C 13.976562 -18.277344 12.523438 -19.570312 9.796875 -19.570312 C 4.621094 -19.570312 -0.777344 -12.582031 -0.777344 -7.507812 C -0.777344 -4.878906 0.617188 -3.125 2.648438 -1.953125 C 3.664062 -1.355469 7.265625 0.199219 7.964844 0.199219 C 11.089844 0.199219 17.441406 -5.714844 19.171875 -8.183594 C 19.832031 -9.117188 20.328125 -10.234375 20.328125 -11.488281 C 20.328125 -12.203125 19.988281 -12.304688 19.613281 -12.304688 C 19.453125 -12.304688 19.292969 -12.285156 19.152344 -12.285156 C 17.761719 -12.285156 16.304688 -10.492188 15.730469 -9.914062 Z M 11.03125 -16.304688 C 10.292969 -14.8125 8.800781 -12.960938 7.148438 -12.820312 C 7.585938 -14.15625 8.917969 -16.246094 10.691406 -16.464844 C 10.792969 -16.464844 10.890625 -16.367188 11.03125 -16.304688 Z M 11.03125 -16.304688 "/></g></g></g><g fill="#0cc0df" fill-opacity="1"><g transform="translate(137.360529, 79.001258)"><g><path d="M 7.1875 0.519531 C 10.453125 0.519531 17.480469 -8.082031 17.480469 -10.832031 C 17.480469 -11.410156 17.183594 -11.90625 16.644531 -11.90625 C 16.40625 -11.90625 16.066406 -11.847656 15.769531 -11.566406 C 12.863281 -8.941406 8.820312 -4.539062 6.570312 -4.539062 C 5.433594 -4.539062 5.039062 -7.347656 5.039062 -7.746094 C 10.96875 -11.566406 20.707031 -22.199219 20.824219 -30.582031 C 20.824219 -31.121094 18.296875 -36.15625 16.1875 -36.15625 C 12.800781 -36.15625 9.515625 -31.675781 8.101562 -29.027344 C 4.179688 -21.742188 -0.835938 -13.378906 -0.835938 -4.640625 C -0.835938 -3.445312 5.15625 0.519531 7.1875 0.519531 Z M 6.847656 -13.757812 C 6.710938 -13.757812 6.691406 -13.816406 6.671875 -13.976562 C 10.550781 -21.742188 13.578125 -27.15625 17.261719 -31.539062 C 17.402344 -31.71875 17.699219 -31.738281 17.960938 -31.835938 C 17.78125 -29.386719 16.027344 -26.300781 14.851562 -23.691406 C 13.480469 -20.648438 9.835938 -15.589844 6.847656 -13.757812 Z M 6.847656 -13.757812 "/></g></g></g><g fill="#0cc0df" fill-opacity="1"><g transform="translate(152.670949, 79.001258)"><g><path d="M 13.859375 1.472656 C 15.269531 1.472656 16.785156 1.09375 18.199219 0.339844 C 21.542969 -1.414062 24.488281 -3.941406 26.601562 -7.109375 C 26.859375 -7.484375 27.078125 -8.082031 27.078125 -8.761719 C 27.078125 -9.515625 26.800781 -10.414062 25.941406 -11.269531 C 23.035156 -8.203125 16.304688 -2.488281 14.613281 -2.488281 C 14.355469 -2.488281 14.195312 -2.609375 14.195312 -2.90625 C 14.195312 -2.988281 14.214844 -3.066406 14.234375 -3.164062 C 14.695312 -5.335938 15.628906 -7.226562 17.082031 -9.398438 C 17.859375 -10.574219 18.21875 -11.210938 18.21875 -11.765625 C 18.21875 -12.382812 17.78125 -12.941406 16.882812 -13.996094 C 16.445312 -14.515625 15.949219 -14.714844 15.488281 -14.714844 C 14.953125 -14.714844 14.433594 -14.433594 14.117188 -14.078125 C 11.984375 -16.066406 9.996094 -16.984375 8.101562 -16.984375 C 5.855469 -16.984375 3.722656 -15.6875 1.613281 -13.4375 C 0.078125 -11.785156 -0.894531 -9.796875 -0.894531 -7.425781 C -0.894531 -5.832031 -0.457031 -4.082031 0.539062 -2.148438 C 0.816406 -1.632812 2.230469 -1.136719 4.0625 -1.136719 C 5.753906 -1.136719 7.804688 -1.554688 9.617188 -2.765625 C 9.4375 -2.25 9.238281 -1.710938 9.238281 -1.195312 C 9.238281 0.757812 12.363281 1.472656 13.859375 1.472656 Z M 10.433594 -13.378906 C 11.628906 -13.378906 12.941406 -12.523438 12.941406 -11.964844 C 12.941406 -11.925781 12.941406 -11.886719 12.921875 -11.847656 C 11.507812 -8.859375 9 -4.996094 5.855469 -4.996094 C 5.175781 -4.996094 4.660156 -5.175781 4.660156 -5.992188 C 4.660156 -8.125 8.382812 -12.980469 9.933594 -13.320312 C 10.09375 -13.359375 10.253906 -13.378906 10.433594 -13.378906 Z M 10.433594 -13.378906 "/></g></g></g><g fill="#0cc0df" fill-opacity="1"><g transform="translate(178.453787, 79.001258)"><g><path d="M 16.484375 -32.492188 C 16.484375 -32.652344 16.386719 -33.289062 16.207031 -33.527344 C 15.570312 -34.34375 14.234375 -36.257812 13.699219 -36.257812 C 9.597656 -29.964844 3.363281 -21.265625 0.359375 -12.304688 C -0.957031 -8.402344 -1.890625 -4.199219 -1.890625 -0.957031 C -1.890625 0.339844 3.644531 2.230469 4.917969 2.570312 C 6.75 1.453125 8.601562 0.238281 10.175781 -1.234375 C 11.867188 -2.828125 13.636719 -5.175781 13.660156 -5.574219 C 16.386719 -5.773438 18.875 -6.472656 21.046875 -8.164062 C 21.601562 -8.601562 21.941406 -9.617188 21.941406 -10.511719 C 21.941406 -10.96875 21.722656 -12.246094 21.125 -12.246094 C 20.925781 -12.246094 20.6875 -12.105469 20.40625 -11.945312 C 18.914062 -11.109375 17.300781 -10.492188 15.589844 -10.492188 C 15.332031 -10.492188 15.09375 -10.511719 14.832031 -10.53125 C 14.792969 -12.226562 12.144531 -14.714844 9.476562 -14.714844 C 8.402344 -14.714844 6.988281 -14.59375 6.3125 -13.738281 C 9.21875 -19.832031 13.300781 -26.042969 16.484375 -32.492188 Z M 3.742188 -2.886719 C 3.425781 -2.886719 3.304688 -3.207031 3.304688 -3.484375 C 3.304688 -5.574219 3.34375 -7.546875 4.738281 -9.714844 C 6.589844 -8.324219 8.660156 -6.890625 9.914062 -6.511719 C 8.660156 -5.117188 5.933594 -2.886719 3.742188 -2.886719 Z M 3.742188 -2.886719 "/></g></g></g><g fill="#0cc0df" fill-opacity="1"><g transform="translate(197.188647, 79.001258)"><g><path d="M 14.535156 -10.832031 C 14.695312 -11.210938 14.792969 -12.046875 14.792969 -12.503906 C 14.792969 -14.773438 12.203125 -18.355469 9.515625 -18.355469 C 7.007812 -18.355469 3.605469 -16.1875 2.25 -14.414062 C 0.597656 -12.445312 -1.394531 -9.257812 -1.394531 -6.570312 C -1.394531 -6.074219 -1.273438 -4.777344 -1.09375 -3.980469 C 0.0195312 -3.007812 4.023438 0.675781 5.875 0.675781 C 6.03125 0.675781 6.191406 0.65625 6.332031 0.578125 C 9.597656 -1.234375 12.125 -3.226562 13.636719 -6.890625 C 14.117188 -6.589844 14.675781 -6.449219 15.269531 -6.449219 C 17.203125 -6.449219 19.453125 -7.863281 20.269531 -9.894531 L 18.179688 -12.007812 C 17.121094 -10.710938 16.246094 -10.632812 15.429688 -10.632812 C 14.695312 -10.632812 14.753906 -10.691406 14.535156 -10.832031 Z M 4.441406 -5.613281 C 4.441406 -7.765625 6.011719 -10.472656 7.984375 -12.542969 C 8.222656 -12.78125 8.542969 -12.960938 8.859375 -12.960938 C 9.039062 -12.960938 9.238281 -12.902344 9.417969 -12.78125 C 9.457031 -11.867188 9.296875 -11.050781 10.152344 -10.332031 C 9.675781 -9.398438 9.160156 -8.582031 8.480469 -7.765625 C 7.664062 -6.808594 5.855469 -5.117188 4.976562 -5.117188 C 4.679688 -5.117188 4.441406 -5.316406 4.441406 -5.613281 Z M 4.441406 -5.613281 "/></g></g></g><g fill="#0cc0df" fill-opacity="1"><g transform="translate(226.933478, 79.001258)"><g><path d="M 0.476562 -0.777344 C 0.855469 -0.160156 2.46875 0.457031 3.742188 0.457031 C 6.113281 0.457031 7.527344 -8.28125 9.976562 -8.941406 C 10.152344 -8.941406 10.195312 -8.5 10.195312 -7.804688 C 10.195312 -7.148438 10.152344 -6.273438 10.152344 -5.316406 C 10.152344 -2.449219 10.492188 1.09375 13.242188 1.09375 C 19.351562 1.09375 24.011719 -6.351562 25.902344 -9.097656 L 24.308594 -11.429688 C 22.21875 -9.078125 17.023438 -3.207031 15.449219 -3.207031 C 15.09375 -3.207031 14.851562 -3.542969 14.851562 -4.359375 C 14.851562 -6.570312 15.808594 -8.5625 15.808594 -10.511719 C 15.808594 -12.542969 13.816406 -15.53125 11.449219 -15.53125 C 10.132812 -15.53125 7.40625 -13.339844 6.351562 -11.566406 C 6.171875 -12.664062 5.214844 -14.195312 4.003906 -14.195312 C 2.171875 -14.195312 0.199219 -11.527344 -0.675781 -10.09375 L 0.796875 -7.882812 C 0.894531 -7.984375 2.210938 -9.117188 2.449219 -9.117188 C 2.527344 -9.117188 2.847656 -8.878906 2.847656 -7.765625 C 2.847656 -6.3125 0.894531 -1.871094 0.476562 -0.777344 Z M 0.476562 -0.777344 "/></g></g></g><g fill="#0cc0df" fill-opacity="1"><g transform="translate(250.944361, 79.001258)"><g><path d="M 10.035156 -3.644531 C 10.394531 -1.035156 12.601562 0.558594 15.230469 0.558594 C 16.566406 0.558594 18.457031 -0.976562 19.394531 -2.03125 C 20.546875 -3.324219 25.1875 -9.976562 25.1875 -9.976562 L 23.375 -11.867188 C 23.296875 -11.964844 16.445312 -4.640625 15.011719 -4.558594 C 14.632812 -4.539062 14.453125 -4.917969 14.453125 -5.195312 C 14.453125 -6.671875 17.300781 -12.226562 17.300781 -13.578125 C 17.300781 -14.476562 14.234375 -15.769531 13.558594 -15.769531 C 13.300781 -15.769531 13.042969 -15.6875 12.882812 -15.511719 C 11.6875 -14.234375 9.296875 -5.097656 5.832031 -5.097656 C 5.632812 -5.097656 5.433594 -5.136719 5.214844 -5.195312 C 4.9375 -5.238281 4.917969 -5.875 4.917969 -6.390625 L 4.917969 -6.75 C 4.917969 -7.664062 6.171875 -12.085938 6.570312 -13.4375 C 6.730469 -13.878906 6.808594 -14.253906 6.808594 -14.574219 C 6.808594 -16.066406 5.214844 -16.503906 3.105469 -16.566406 C 2.648438 -16.40625 1.910156 -16.128906 1.613281 -15.132812 C 0.835938 -12.445312 -1.335938 -9.117188 -1.335938 -6.371094 C -1.335938 -4.660156 -0.558594 -3.105469 1.136719 -2.449219 C 2.289062 -1.992188 4.261719 -0.875 5.914062 -0.875 C 7.585938 -0.875 9.179688 -2.46875 10.035156 -3.644531 Z M 10.035156 -3.644531 "/></g></g></g><g fill="#0cc0df" fill-opacity="1"><g transform="translate(273.521765, 79.001258)"><g><path d="M 16.644531 0.714844 C 17.738281 -1.492188 18.597656 -3.902344 19.890625 -6.171875 C 20.429688 -7.128906 22.71875 -12.164062 24.03125 -12.164062 C 24.191406 -12.164062 24.46875 -12.007812 24.46875 -11.785156 C 24.46875 -9.636719 22.4375 -6.410156 22.4375 -3.804688 C 22.4375 -1.632812 24.390625 -0.0195312 26.582031 -0.0195312 C 31.121094 -0.0195312 35.402344 -6.988281 37.03125 -10.292969 L 34.683594 -11.546875 C 33.769531 -10.433594 28.691406 -4.199219 27.136719 -4.199219 C 26.898438 -4.199219 26.820312 -4.480469 26.820312 -4.71875 C 26.820312 -6.171875 29.25 -9 29.25 -11.128906 C 29.25 -13.777344 26.558594 -16.40625 24.628906 -17.101562 C 22.636719 -17.003906 21.542969 -16.128906 20.03125 -14.8125 C 19.929688 -17.003906 17.78125 -17.980469 16.207031 -17.980469 C 14.496094 -17.980469 13.28125 -16.804688 12.761719 -15.75 C 12.363281 -18.019531 10.332031 -19.214844 8.542969 -19.214844 C 3.902344 -19.214844 0.578125 -11.726562 -1.214844 -9.160156 C -0.496094 -8.261719 0.0585938 -8.082031 0.636719 -8.082031 C 2.050781 -8.082031 3.742188 -12.164062 7.746094 -13.859375 C 7.785156 -13.519531 7.804688 -13.199219 7.804688 -12.882812 C 7.804688 -8.34375 3.484375 -4.578125 3.484375 -0.179688 C 4.242188 0.757812 4.976562 1.214844 6.472656 1.632812 C 8.125 0.121094 12.742188 -11.828125 15.710938 -11.828125 C 16.007812 -11.828125 16.265625 -11.785156 16.265625 -11.367188 C 16.265625 -7.804688 13.480469 -4.042969 13.261719 -0.996094 C 14.335938 -0.078125 15.3125 0.238281 16.644531 0.714844 Z M 16.644531 0.714844 "/></g></g></g><g fill="#0cc0df" fill-opacity="1"><g transform="translate(307.845785, 79.001258)"><g><path d="M 19.152344 -12.285156 C 17.761719 -12.285156 16.304688 -10.492188 15.730469 -9.914062 C 13.539062 -7.765625 9.714844 -4.082031 6.671875 -4.082031 C 5.15625 -4.082031 4.816406 -4.71875 4.816406 -5.753906 C 4.816406 -6.730469 5.039062 -7.1875 5.457031 -7.90625 C 8.917969 -9.316406 13.976562 -11.328125 13.976562 -15.789062 C 13.976562 -18.277344 12.523438 -19.570312 9.796875 -19.570312 C 4.621094 -19.570312 -0.777344 -12.582031 -0.777344 -7.507812 C -0.777344 -4.878906 0.617188 -3.125 2.648438 -1.953125 C 3.664062 -1.355469 7.265625 0.199219 7.964844 0.199219 C 11.089844 0.199219 17.441406 -5.714844 19.171875 -8.183594 C 19.832031 -9.117188 20.328125 -10.234375 20.328125 -11.488281 C 20.328125 -12.203125 19.988281 -12.304688 19.613281 -12.304688 C 19.453125 -12.304688 19.292969 -12.285156 19.152344 -12.285156 Z M 11.050781 -22.976562 C 10.910156 -22.796875 10.851562 -22.636719 10.851562 -22.519531 C 10.851562 -21.800781 12.125 -21.441406 12.683594 -21.441406 C 14.234375 -21.441406 16.464844 -22.359375 17.601562 -22.917969 C 18.15625 -23.195312 18.796875 -23.992188 18.796875 -24.570312 C 18.796875 -24.75 18.714844 -24.90625 18.554688 -25.007812 C 17.320312 -25.804688 16.347656 -26.402344 14.753906 -27.078125 C 13.660156 -25.386719 12.402344 -24.789062 11.050781 -22.976562 Z M 11.03125 -16.304688 C 10.292969 -14.8125 8.800781 -12.960938 7.148438 -12.820312 C 7.585938 -14.15625 8.917969 -16.246094 10.691406 -16.464844 C 10.792969 -16.464844 10.890625 -16.367188 11.03125 -16.304688 Z M 11.03125 -16.304688 "/></g></g></g><g fill="#0cc0df" fill-opacity="1"><g transform="translate(324.748976, 79.001258)"><g><path d="M 9.695312 -4.578125 C 9.695312 -6.332031 10.511719 -8.023438 11.527344 -9.617188 C 12.820312 -11.648438 15.730469 -16.746094 17.601562 -17.363281 C 17.9375 -17.460938 18.097656 -17.621094 18.097656 -17.859375 C 18.097656 -18.753906 17.164062 -20.746094 16.246094 -21.324219 C 16.027344 -21.246094 15.710938 -21.203125 15.511719 -21.046875 C 14.496094 -20.1875 13.28125 -19.132812 12.164062 -18.4375 C 10.152344 -17.183594 7.726562 -16.664062 5.257812 -16.664062 C 3.84375 -16.664062 3.464844 -18.078125 2.308594 -18.078125 C 2.109375 -18.078125 1.890625 -18.039062 1.652344 -17.960938 C 0.738281 -17.003906 1.355469 -13.160156 0.578125 -11.90625 C 0.320312 -11.507812 -0.160156 -11.011719 -0.320312 -10.574219 L 0.359375 -8.660156 C 0.457031 -8.523438 0.597656 -8.460938 0.796875 -8.460938 C 2.308594 -8.460938 3.742188 -11.269531 4.042969 -13.199219 C 4.398438 -12.800781 5.058594 -12.582031 5.753906 -12.582031 C 6.3125 -12.582031 6.890625 -12.722656 7.386719 -13.042969 C 6.371094 -11.449219 3.902344 -7.1875 3.902344 -4.160156 C 3.902344 -3.007812 4.320312 -2.128906 5.214844 -1.453125 C 7.226562 0.078125 10.152344 1.511719 12.644531 2.148438 C 17.042969 -0.457031 18.855469 -4.179688 20.867188 -7.046875 C 21.78125 -8.34375 22.636719 -9.65625 22.636719 -10.59375 C 22.636719 -11.03125 21.683594 -11.90625 20.984375 -11.90625 C 20.804688 -11.90625 20.667969 -11.867188 20.546875 -11.746094 C 20.449219 -11.648438 19.890625 -10.890625 18.996094 -9.933594 C 17.222656 -8.042969 12.046875 -2.886719 10.214844 -2.886719 C 9.957031 -2.886719 9.695312 -3.324219 9.695312 -4.578125 Z M 9.695312 -4.578125 "/></g></g></g><g fill="#0cc0df" fill-opacity="1"><g transform="translate(344.77796, 79.001258)"><g><path d="M 5.65625 -18.15625 C 5.414062 -18.316406 5.195312 -18.398438 4.976562 -18.398438 C 2.628906 -18.398438 -1.3125 -9.417969 -1.3125 -5.257812 C -1.3125 -4.199219 -1.113281 -3.285156 -0.636719 -2.589844 C -0.121094 -1.832031 4.261719 0.378906 5.792969 0.378906 C 8.183594 0.378906 13.957031 -7.425781 15.171875 -10.015625 C 15.191406 -10.113281 14.277344 -10.75 13.519531 -11.808594 C 11.25 -9.558594 7.328125 -5.574219 4.660156 -4.261719 C 4.578125 -4.519531 4.539062 -4.839844 4.539062 -5.175781 C 4.539062 -7.84375 6.769531 -12.625 8.101562 -14.136719 C 7.625 -15.789062 7.109375 -17.101562 5.65625 -18.15625 Z M 5.414062 -22.898438 C 5.414062 -20.984375 7.289062 -19.550781 9.578125 -19.550781 C 10.769531 -19.550781 11.191406 -20.230469 11.191406 -21.105469 C 11.191406 -23.492188 9.636719 -25.367188 8.480469 -25.367188 C 7.566406 -25.367188 6.210938 -25.246094 6.210938 -25.246094 C 5.714844 -24.488281 5.414062 -23.714844 5.414062 -22.898438 Z M 5.414062 -22.898438 "/></g></g></g><g fill="#0cc0df" fill-opacity="1"><g transform="translate(357.639529, 79.001258)"><g><path d="M 13.558594 -5.515625 C 14.214844 -6.53125 16.902344 -11.03125 16.902344 -13.0625 C 16.902344 -14.773438 14.792969 -17.042969 13.261719 -17.042969 C 11.210938 -17.042969 10.351562 -18 8.460938 -18 C 7.527344 -18 6.550781 -17.78125 5.476562 -17.082031 C 2.828125 -15.371094 -1.355469 -10.433594 -1.355469 -7.089844 C -1.355469 -4.042969 1.136719 -0.636719 4.9375 -0.636719 C 5.097656 -0.636719 5.238281 -0.636719 5.394531 -0.65625 L -3.144531 16.503906 C -2.390625 17.460938 -1.273438 17.898438 -0.0195312 17.898438 C 4.121094 11.410156 6.710938 6.113281 10.730469 -0.398438 C 12.800781 -0.558594 18.496094 -0.179688 25.246094 -9.496094 L 23.714844 -11.828125 C 22.28125 -10.152344 20.925781 -8.878906 19.253906 -7.464844 C 17.621094 -6.09375 14.894531 -4.898438 13.835938 -4.898438 C 13.578125 -4.898438 13.417969 -4.976562 13.417969 -5.136719 C 13.417969 -5.238281 13.460938 -5.355469 13.558594 -5.515625 Z M 7.507812 -4.777344 C 6.410156 -4.976562 5.613281 -5.296875 5.613281 -6.492188 C 5.613281 -10.3125 11.429688 -15.3125 12.425781 -15.3125 C 12.683594 -15.3125 12.761719 -14.234375 12.761719 -13.878906 C 12.761719 -10.53125 9.457031 -6.171875 7.507812 -4.777344 Z M 7.507812 -4.777344 "/></g></g></g><g fill="#0cc0df" fill-opacity="1"><g transform="translate(380.714667, 79.001258)"><g><path d="M 10.035156 -3.644531 C 10.394531 -1.035156 12.601562 0.558594 15.230469 0.558594 C 16.566406 0.558594 18.457031 -0.976562 19.394531 -2.03125 C 20.546875 -3.324219 25.1875 -9.976562 25.1875 -9.976562 L 23.375 -11.867188 C 23.296875 -11.964844 16.445312 -4.640625 15.011719 -4.558594 C 14.632812 -4.539062 14.453125 -4.917969 14.453125 -5.195312 C 14.453125 -6.671875 17.300781 -12.226562 17.300781 -13.578125 C 17.300781 -14.476562 14.234375 -15.769531 13.558594 -15.769531 C 13.300781 -15.769531 13.042969 -15.6875 12.882812 -15.511719 C 11.6875 -14.234375 9.296875 -5.097656 5.832031 -5.097656 C 5.632812 -5.097656 5.433594 -5.136719 5.214844 -5.195312 C 4.9375 -5.238281 4.917969 -5.875 4.917969 -6.390625 L 4.917969 -6.75 C 4.917969 -7.664062 6.171875 -12.085938 6.570312 -13.4375 C 6.730469 -13.878906 6.808594 -14.253906 6.808594 -14.574219 C 6.808594 -16.066406 5.214844 -16.503906 3.105469 -16.566406 C 2.648438 -16.40625 1.910156 -16.128906 1.613281 -15.132812 C 0.835938 -12.445312 -1.335938 -9.117188 -1.335938 -6.371094 C -1.335938 -4.660156 -0.558594 -3.105469 1.136719 -2.449219 C 2.289062 -1.992188 4.261719 -0.875 5.914062 -0.875 C 7.585938 -0.875 9.179688 -2.46875 10.035156 -3.644531 Z M 10.035156 -3.644531 "/></g></g></g><g fill="#0cc0df" fill-opacity="1"><g transform="translate(403.292072, 79.001258)"><g><path d="M 15.730469 -9.914062 C 13.539062 -7.765625 9.714844 -4.082031 6.671875 -4.082031 C 5.15625 -4.082031 4.816406 -4.71875 4.816406 -5.753906 C 4.816406 -6.730469 5.039062 -7.1875 5.457031 -7.90625 C 8.917969 -9.316406 13.976562 -11.328125 13.976562 -15.789062 C 13.976562 -18.277344 12.523438 -19.570312 9.796875 -19.570312 C 4.621094 -19.570312 -0.777344 -12.582031 -0.777344 -7.507812 C -0.777344 -4.878906 0.617188 -3.125 2.648438 -1.953125 C 3.664062 -1.355469 7.265625 0.199219 7.964844 0.199219 C 11.089844 0.199219 17.441406 -5.714844 19.171875 -8.183594 C 19.832031 -9.117188 20.328125 -10.234375 20.328125 -11.488281 C 20.328125 -12.203125 19.988281 -12.304688 19.613281 -12.304688 C 19.453125 -12.304688 19.292969 -12.285156 19.152344 -12.285156 C 17.761719 -12.285156 16.304688 -10.492188 15.730469 -9.914062 Z M 11.03125 -16.304688 C 10.292969 -14.8125 8.800781 -12.960938 7.148438 -12.820312 C 7.585938 -14.15625 8.917969 -16.246094 10.691406 -16.464844 C 10.792969 -16.464844 10.890625 -16.367188 11.03125 -16.304688 Z M 11.03125 -16.304688 "/></g></g></g></svg>