<svg xmlns="http://www.w3.org/2000/svg" xmlns:xlink="http://www.w3.org/1999/xlink" width="400" zoomAndPan="magnify" viewBox="0 0 300 112.499997" height="150" preserveAspectRatio="xMidYMid meet" version="1.0"><defs><g/><clipPath id="ca05ea155a"><path d="M 30 21.390625 L 87 21.390625 L 87 90.832031 L 30 90.832031 Z M 30 21.390625 " clip-rule="nonzero"/></clipPath></defs><g fill="#0cc0df" fill-opacity="1"><g transform="translate(97.95911, 78.284907)"><g><path d="M 22.648438 -30.699219 L 27.101562 -25.238281 C 27.101562 -25.238281 32.742188 -27.28125 32.742188 -30.984375 C 32.742188 -34.710938 30.570312 -37.480469 26.558594 -37.480469 C 12.632812 -37.480469 -0.59375 -23.683594 -0.59375 -12.683594 C -0.59375 -7.894531 13.40625 0.75 17.136719 0.75 C 23.011719 0.75 36.082031 -8.671875 37.660156 -14.027344 C 37.738281 -14.3125 37.789062 -14.261719 37.789062 -14.441406 C 37.789062 -14.855469 37.582031 -15.296875 37.222656 -15.296875 C 35.097656 -15.296875 20.601562 -4.246094 18.144531 -4.246094 C 14.960938 -4.246094 8.773438 -10.277344 8.773438 -12.863281 C 8.773438 -19.929688 16.4375 -29.015625 22.648438 -30.699219 Z M 22.648438 -30.699219 "/></g></g></g><g fill="#0cc0df" fill-opacity="1"><g transform="translate(133.056564, 78.284907)"><g><path d="M 23.734375 -39.421875 C 23.65625 -41.234375 20.707031 -43.949219 18.792969 -43.949219 C 12.476562 -43.949219 6.367188 -31.191406 4.632812 -26.53125 C 3.289062 -22.882812 1.476562 -18.457031 0.105469 -14.441406 C -0.933594 -11.390625 -2.589844 -3.234375 -2.949219 -1.035156 C -2.949219 -0.957031 -2.976562 -0.90625 -2.976562 -0.855469 C -2.976562 0.128906 -1.578125 0.519531 -0.777344 0.519531 C 2.875 0.519531 4.167969 -3.417969 6.445312 -6.367188 C 8.335938 -8.828125 13.484375 -14.46875 16.695312 -14.519531 C 15.140625 -10.714844 11.957031 -7.117188 11.363281 -3.003906 C 11.335938 -2.796875 11.3125 -2.589844 11.3125 -2.40625 C 11.3125 0.800781 14.574219 1.320312 17.210938 1.320312 C 22.128906 1.320312 29.171875 -8 32.019531 -12.347656 L 29.949219 -15.453125 C 25.496094 -10.664062 20.058594 -5.332031 17.367188 -3.597656 C 18.714844 -7.972656 23.320312 -12.632812 23.320312 -17.210938 C 23.320312 -19.023438 22.804688 -21.433594 21.484375 -21.433594 C 17.003906 -21.433594 10.820312 -14.703125 8.980469 -13.953125 C 8.957031 -13.953125 8.929688 -13.925781 8.902344 -13.925781 C 8.828125 -13.925781 8.75 -13.976562 8.695312 -14.003906 C 9.109375 -15.476562 14.78125 -20.421875 15.894531 -21.898438 C 19.078125 -26.117188 23.734375 -33.621094 23.734375 -39.421875 Z M 18.195312 -35.355469 C 18.222656 -35.410156 18.351562 -35.382812 18.664062 -35.410156 C 17.109375 -30.050781 15.453125 -26.972656 9.785156 -19.980469 L 9.785156 -20.136719 C 9.785156 -23.789062 15.554688 -32.148438 18.195312 -35.355469 Z M 18.195312 -35.355469 "/></g></g></g><g fill="#0cc0df" fill-opacity="1"><g transform="translate(162.097382, 78.284907)"><g><path d="M 7.351562 -23.605469 C 7.039062 -23.8125 6.753906 -23.917969 6.472656 -23.917969 C 3.417969 -23.917969 -1.707031 -12.242188 -1.707031 -6.832031 C -1.707031 -5.460938 -1.449219 -4.269531 -0.828125 -3.363281 C -0.15625 -2.382812 5.539062 0.492188 7.53125 0.492188 C 10.636719 0.492188 18.144531 -9.65625 19.722656 -13.019531 C 19.75 -13.148438 18.558594 -13.976562 17.574219 -15.347656 C 14.625 -12.425781 9.523438 -7.246094 6.058594 -5.539062 C 5.953125 -5.875 5.902344 -6.289062 5.902344 -6.730469 C 5.902344 -10.199219 8.800781 -16.410156 10.535156 -18.378906 C 9.914062 -20.527344 9.242188 -22.234375 7.351562 -23.605469 Z M 7.039062 -29.765625 C 7.039062 -27.28125 9.472656 -25.417969 12.449219 -25.417969 C 14.003906 -25.417969 14.546875 -26.296875 14.546875 -27.4375 C 14.546875 -30.542969 12.527344 -32.976562 11.027344 -32.976562 C 9.835938 -32.976562 8.074219 -32.820312 8.074219 -32.820312 C 7.429688 -31.835938 7.039062 -30.828125 7.039062 -29.765625 Z M 7.039062 -29.765625 "/></g></g></g><g fill="#0cc0df" fill-opacity="1"><g transform="translate(178.817856, 78.284907)"><g><path d="M 21.640625 0.933594 C 23.0625 -1.941406 24.175781 -5.074219 25.859375 -8.023438 C 26.558594 -9.265625 29.535156 -15.816406 31.242188 -15.816406 C 31.449219 -15.816406 31.8125 -15.609375 31.8125 -15.324219 C 31.8125 -12.527344 29.171875 -8.335938 29.171875 -4.945312 C 29.171875 -2.121094 31.707031 -0.0273438 34.554688 -0.0273438 C 40.457031 -0.0273438 46.019531 -9.085938 48.144531 -13.382812 L 45.089844 -15.011719 C 43.898438 -13.5625 37.296875 -5.460938 35.28125 -5.460938 C 34.96875 -5.460938 34.867188 -5.824219 34.867188 -6.132812 C 34.867188 -8.023438 38.023438 -11.699219 38.023438 -14.46875 C 38.023438 -17.910156 34.527344 -21.328125 32.019531 -22.234375 C 29.429688 -22.105469 28.007812 -20.964844 26.039062 -19.257812 C 25.910156 -22.105469 23.113281 -23.371094 21.070312 -23.371094 C 18.84375 -23.371094 17.265625 -21.847656 16.589844 -20.472656 C 16.074219 -23.425781 13.433594 -24.976562 11.105469 -24.976562 C 5.074219 -24.976562 0.75 -15.246094 -1.578125 -11.90625 C -0.648438 -10.742188 0.078125 -10.507812 0.828125 -10.507812 C 2.667969 -10.507812 4.867188 -15.816406 10.070312 -18.015625 C 10.121094 -17.574219 10.144531 -17.160156 10.144531 -16.746094 C 10.144531 -10.84375 4.53125 -5.953125 4.53125 -0.234375 C 5.511719 0.984375 6.472656 1.578125 8.414062 2.121094 C 10.5625 0.15625 16.566406 -15.375 20.421875 -15.375 C 20.808594 -15.375 21.148438 -15.324219 21.148438 -14.78125 C 21.148438 -10.144531 17.523438 -5.253906 17.238281 -1.292969 C 18.636719 -0.105469 19.90625 0.3125 21.640625 0.933594 Z M 21.640625 0.933594 "/></g></g></g><g fill="#0cc0df" fill-opacity="1"><g transform="translate(223.440283, 78.284907)"><g><path d="M 7.351562 -23.605469 C 7.039062 -23.8125 6.753906 -23.917969 6.472656 -23.917969 C 3.417969 -23.917969 -1.707031 -12.242188 -1.707031 -6.832031 C -1.707031 -5.460938 -1.449219 -4.269531 -0.828125 -3.363281 C -0.15625 -2.382812 5.539062 0.492188 7.53125 0.492188 C 10.636719 0.492188 18.144531 -9.65625 19.722656 -13.019531 C 19.75 -13.148438 18.558594 -13.976562 17.574219 -15.347656 C 14.625 -12.425781 9.523438 -7.246094 6.058594 -5.539062 C 5.953125 -5.875 5.902344 -6.289062 5.902344 -6.730469 C 5.902344 -10.199219 8.800781 -16.410156 10.535156 -18.378906 C 9.914062 -20.527344 9.242188 -22.234375 7.351562 -23.605469 Z M 7.039062 -29.765625 C 7.039062 -27.28125 9.472656 -25.417969 12.449219 -25.417969 C 14.003906 -25.417969 14.546875 -26.296875 14.546875 -27.4375 C 14.546875 -30.542969 12.527344 -32.976562 11.027344 -32.976562 C 9.835938 -32.976562 8.074219 -32.820312 8.074219 -32.820312 C 7.429688 -31.835938 7.039062 -30.828125 7.039062 -29.765625 Z M 7.039062 -29.765625 "/></g></g></g><g fill="#0cc0df" fill-opacity="1"><g transform="translate(240.160757, 78.284907)"><g><path d="M 20.449219 -12.890625 C 17.601562 -10.09375 12.632812 -5.304688 8.671875 -5.304688 C 6.703125 -5.304688 6.265625 -6.132812 6.265625 -7.480469 C 6.265625 -8.75 6.546875 -9.34375 7.09375 -10.277344 C 11.597656 -12.113281 18.171875 -14.726562 18.171875 -20.527344 C 18.171875 -23.761719 16.28125 -25.445312 12.734375 -25.445312 C 6.003906 -25.445312 -1.007812 -16.359375 -1.007812 -9.757812 C -1.007812 -6.339844 0.800781 -4.0625 3.441406 -2.535156 C 4.761719 -1.761719 9.449219 0.257812 10.351562 0.257812 C 14.417969 0.257812 22.675781 -7.429688 24.925781 -10.636719 C 25.78125 -11.855469 26.425781 -13.304688 26.425781 -14.933594 C 26.425781 -15.867188 25.988281 -15.996094 25.496094 -15.996094 C 25.289062 -15.996094 25.082031 -15.96875 24.898438 -15.96875 C 23.089844 -15.96875 21.199219 -13.640625 20.449219 -12.890625 Z M 14.339844 -21.199219 C 13.382812 -19.257812 11.441406 -16.851562 9.292969 -16.667969 C 9.863281 -18.402344 11.597656 -21.121094 13.898438 -21.40625 C 14.027344 -21.40625 14.160156 -21.277344 14.339844 -21.199219 Z M 14.339844 -21.199219 "/></g></g></g><g clip-path="url(#ca05ea155a)"><path fill="#ff68bd" d="M 50.617188 21.390625 C 49.429688 21.390625 48.46875 22.785156 48.46875 23.980469 L 48.46875 25.003906 C 48.46875 25.851562 48.953125 26.578125 49.652344 26.933594 C 49.644531 27.074219 49.632812 27.214844 49.632812 27.359375 L 49.632812 47.726562 C 49.316406 48.332031 49.003906 48.960938 48.667969 49.582031 L 31.292969 81.246094 C 28.496094 86.429688 33.820312 90.835938 36.957031 90.835938 L 80.433594 90.835938 C 83.570312 90.835938 88.953125 86.535156 86.097656 81.246094 L 68.722656 49.582031 C 68.386719 48.960938 68.074219 48.332031 67.757812 47.726562 L 67.757812 27.359375 C 67.757812 27.214844 67.75 27.074219 67.738281 26.933594 C 68.4375 26.578125 68.921875 25.851562 68.921875 25.003906 L 68.921875 23.980469 C 68.921875 22.785156 67.96875 21.390625 66.78125 21.390625 Z M 50.617188 21.390625 " fill-opacity="1" fill-rule="nonzero"/></g><path fill="#ffffff" d="M 55.355469 46.984375 L 62.0625 46.984375 C 64.730469 46.984375 65.601562 49.488281 66.875 51.863281 L 82.019531 80.066406 C 85.078125 85.761719 79.871094 88.265625 77.203125 88.265625 L 40.214844 88.265625 C 37.546875 88.265625 32.671875 85.140625 35.398438 80.066406 L 50.539062 51.863281 C 51.816406 49.488281 52.6875 46.984375 55.355469 46.984375 Z M 55.355469 46.984375 " fill-opacity="1" fill-rule="nonzero"/><path fill="#ffffff" d="M 51.820312 25.769531 L 65.578125 25.769531 L 65.578125 51.167969 L 51.820312 51.167969 Z M 51.820312 25.769531 " fill-opacity="1" fill-rule="nonzero"/><path fill="#ffffff" d="M 50.601562 25.160156 L 50.601562 24.152344 C 50.601562 23.898438 50.691406 23.679688 50.871094 23.5 C 51.050781 23.316406 51.269531 23.226562 51.523438 23.226562 L 65.855469 23.226562 C 66.109375 23.226562 66.328125 23.316406 66.507812 23.5 C 66.6875 23.679688 66.777344 23.898438 66.777344 24.152344 L 66.777344 25.160156 C 66.777344 25.417969 66.6875 25.636719 66.507812 25.816406 C 66.328125 25.996094 66.109375 26.089844 65.855469 26.089844 L 51.523438 26.089844 C 51.269531 26.089844 51.050781 25.996094 50.871094 25.816406 C 50.691406 25.636719 50.601562 25.417969 50.601562 25.160156 Z M 50.601562 25.160156 " fill-opacity="1" fill-rule="nonzero"/><path fill="#ff68bd" d="M 67.539062 56.015625 L 79.625 79.160156 C 82.269531 84.226562 77.726562 86.410156 75.367188 86.410156 L 42.667969 86.410156 C 40.308594 86.410156 35.992188 83.640625 38.410156 79.160156 L 50.257812 57.207031 C 60.734375 61.347656 64.542969 49.839844 67.539062 56.015625 Z M 67.539062 56.015625 " fill-opacity="1" fill-rule="nonzero"/><path fill="#ffffff" d="M 60.183594 72.839844 C 60.183594 75.011719 58.4375 76.773438 56.28125 76.773438 C 54.125 76.773438 52.375 75.011719 52.375 72.839844 C 52.375 70.667969 54.125 68.90625 56.28125 68.90625 C 58.4375 68.90625 60.183594 70.667969 60.183594 72.839844 Z M 60.183594 72.839844 " fill-opacity="1" fill-rule="nonzero"/><path fill="#ffffff" d="M 54.632812 68.136719 C 54.632812 69.421875 53.601562 70.460938 52.328125 70.460938 C 51.054688 70.460938 50.019531 69.421875 50.019531 68.136719 C 50.019531 66.851562 51.054688 65.8125 52.328125 65.8125 C 53.601562 65.8125 54.632812 66.851562 54.632812 68.136719 Z M 54.632812 68.136719 " fill-opacity="1" fill-rule="nonzero"/><path fill="#ffffff" d="M 63.742188 63.609375 C 63.742188 64.367188 63.132812 64.980469 62.382812 64.980469 C 61.628906 64.980469 61.019531 64.367188 61.019531 63.609375 C 61.019531 62.851562 61.628906 62.238281 62.382812 62.238281 C 63.132812 62.238281 63.742188 62.851562 63.742188 63.609375 Z M 63.742188 63.609375 " fill-opacity="1" fill-rule="nonzero"/><path fill="#ff68bd" d="M 62.207031 26.296875 C 62.335938 26.296875 62.464844 26.324219 62.585938 26.375 C 62.707031 26.425781 62.8125 26.496094 62.90625 26.589844 C 63 26.683594 63.070312 26.792969 63.121094 26.914062 C 63.171875 27.039062 63.195312 27.164062 63.195312 27.296875 L 63.195312 47.035156 C 63.195312 47.167969 63.171875 47.292969 63.121094 47.417969 C 63.070312 47.539062 63 47.648438 62.90625 47.742188 C 62.8125 47.835938 62.707031 47.90625 62.585938 47.957031 C 62.464844 48.007812 62.335938 48.03125 62.207031 48.03125 C 62.074219 48.03125 61.949219 48.007812 61.828125 47.957031 C 61.703125 47.90625 61.597656 47.835938 61.503906 47.742188 C 61.410156 47.648438 61.339844 47.539062 61.289062 47.417969 C 61.238281 47.292969 61.214844 47.167969 61.214844 47.035156 L 61.214844 27.296875 C 61.214844 27.164062 61.238281 27.039062 61.289062 26.914062 C 61.339844 26.792969 61.410156 26.683594 61.503906 26.589844 C 61.597656 26.496094 61.703125 26.425781 61.828125 26.375 C 61.949219 26.324219 62.074219 26.296875 62.207031 26.296875 Z M 62.207031 26.296875 " fill-opacity="1" fill-rule="nonzero"/></svg>