<svg xmlns="http://www.w3.org/2000/svg" xmlns:xlink="http://www.w3.org/1999/xlink" width="400" zoomAndPan="magnify" viewBox="0 0 300 112.499997" height="150" preserveAspectRatio="xMidYMid meet" version="1.0"><defs><g/><clipPath id="ab474dde96"><path d="M 15 19.226562 L 56 19.226562 L 56 93 L 15 93 Z M 15 19.226562 " clip-rule="nonzero"/></clipPath><clipPath id="62aff12cf8"><path d="M 54.285156 65.605469 C 53.597656 63.644531 52.839844 61.980469 52.039062 60.5625 L 52.039062 34.457031 C 52.039062 34.132812 51.78125 33.871094 51.457031 33.871094 C 51.132812 33.871094 50.875 34.132812 50.875 34.457031 L 50.875 58.703125 C 48.640625 55.527344 46.175781 54.003906 43.953125 53.339844 L 43.953125 23.070312 C 43.953125 22.746094 43.691406 22.484375 43.371094 22.484375 C 43.046875 22.484375 42.785156 22.746094 42.785156 23.070312 L 42.785156 53.0625 C 41.035156 52.75 39.507812 52.925781 38.476562 53.160156 C 35.578125 53.816406 34.199219 55.664062 32.863281 57.453125 C 32.433594 58.027344 32.011719 58.589844 31.550781 59.101562 C 31.324219 57.046875 30.5625 53.113281 28.007812 51.804688 C 26.578125 51.074219 25.078125 51.015625 23.667969 51.636719 C 23.074219 51.894531 22.683594 52.433594 22.625 53.070312 C 22.5625 53.714844 22.847656 54.320312 23.386719 54.691406 C 25.902344 56.429688 27.609375 58.609375 28.480469 61.167969 C 27.433594 61.503906 26.34375 61.59375 25.207031 61.6875 C 22.984375 61.863281 20.6875 62.050781 18.589844 64.15625 C 16.28125 66.476562 11.863281 73.074219 20.683594 84.183594 C 25.851562 90.691406 32.371094 92.96875 36.863281 92.96875 C 38.664062 92.96875 40.140625 92.605469 41.074219 92 C 42.203125 91.269531 43.078125 90.324219 43.675781 89.1875 C 44.171875 88.25 45.203125 87.675781 46.261719 87.757812 C 47.539062 87.855469 48.808594 87.617188 50.023438 87.050781 C 53.554688 85.40625 58.128906 76.59375 54.285156 65.605469 Z M 24.046875 53.730469 C 23.78125 53.546875 23.773438 53.285156 23.785156 53.183594 C 23.792969 53.082031 23.847656 52.832031 24.136719 52.703125 C 25.230469 52.222656 26.355469 52.269531 27.476562 52.847656 C 29.949219 54.109375 30.394531 58.898438 30.464844 60.121094 C 30.210938 60.320312 29.941406 60.507812 29.644531 60.671875 C 29.617188 60.6875 29.585938 60.699219 29.558594 60.710938 C 28.59375 57.945312 26.75 55.597656 24.046875 53.730469 Z M 49.535156 85.992188 C 48.5 86.472656 47.425781 86.675781 46.351562 86.59375 C 44.835938 86.472656 43.351562 87.300781 42.644531 88.640625 C 42.140625 89.597656 41.402344 90.398438 40.441406 91.019531 C 37.5625 92.882812 28.304688 91.902344 21.597656 83.457031 C 13.359375 73.082031 17.328125 67.078125 19.417969 64.980469 C 21.210938 63.179688 23.199219 63.019531 25.300781 62.851562 C 26.640625 62.742188 28.019531 62.625 29.371094 62.082031 C 29.375 62.082031 29.378906 62.082031 29.382812 62.082031 C 29.390625 62.078125 29.394531 62.074219 29.402344 62.070312 C 29.671875 61.960938 29.941406 61.839844 30.207031 61.691406 C 30.679688 61.433594 31.09375 61.128906 31.476562 60.804688 C 31.480469 60.800781 31.484375 60.796875 31.488281 60.796875 C 32.410156 60.007812 33.113281 59.070312 33.800781 58.152344 C 35.0625 56.457031 36.257812 54.859375 38.734375 54.300781 C 39.296875 54.171875 40.023438 54.0625 40.859375 54.0625 C 41.453125 54.0625 42.101562 54.121094 42.789062 54.261719 L 42.789062 59.570312 C 42.789062 59.890625 43.050781 60.152344 43.371094 60.152344 C 43.695312 60.152344 43.953125 59.890625 43.953125 59.570312 L 43.953125 54.582031 C 46.195312 55.351562 48.6875 57.128906 50.875 60.878906 L 50.875 71.273438 C 50.875 71.597656 51.136719 71.859375 51.457031 71.859375 C 51.78125 71.859375 52.042969 71.597656 52.042969 71.273438 L 52.042969 63.136719 C 52.441406 64.007812 52.824219 64.953125 53.1875 65.992188 C 56.746094 76.175781 52.640625 84.546875 49.535156 85.992188 Z M 38.003906 86.414062 C 33.136719 86.636719 29.792969 84.585938 27.792969 80.167969 C 27.480469 79.476562 26.78125 79.054688 26.03125 79.089844 C 25.796875 79.101562 25.570312 79.15625 25.359375 79.253906 C 24.4375 79.671875 24.027344 80.765625 24.445312 81.691406 C 26.976562 87.28125 31.296875 90.113281 37.289062 90.113281 C 37.578125 90.113281 37.875 90.105469 38.171875 90.09375 C 38.175781 90.09375 38.183594 90.089844 38.1875 90.089844 C 39.191406 90.035156 39.96875 89.175781 39.921875 88.171875 C 39.902344 87.679688 39.691406 87.226562 39.328125 86.894531 C 38.964844 86.5625 38.480469 86.390625 38.003906 86.414062 Z M 38.117188 88.925781 C 38.113281 88.925781 38.109375 88.925781 38.105469 88.925781 C 32.175781 89.1875 27.945312 86.589844 25.507812 81.210938 C 25.355469 80.871094 25.503906 80.46875 25.84375 80.316406 C 25.921875 80.28125 26 80.261719 26.085938 80.257812 C 26.097656 80.257812 26.109375 80.257812 26.121094 80.257812 C 26.382812 80.257812 26.621094 80.410156 26.730469 80.652344 C 28.953125 85.554688 32.65625 87.824219 38.058594 87.582031 C 38.234375 87.570312 38.410156 87.632812 38.539062 87.753906 C 38.675781 87.878906 38.75 88.042969 38.757812 88.222656 C 38.773438 88.59375 38.488281 88.90625 38.117188 88.925781 Z M 15.449219 30.5625 C 15.449219 30.238281 15.707031 29.980469 16.03125 29.980469 C 16.351562 29.980469 16.613281 30.238281 16.613281 30.5625 L 16.613281 61.519531 C 16.613281 61.84375 16.351562 62.105469 16.03125 62.105469 C 15.707031 62.105469 15.449219 61.84375 15.449219 61.519531 Z M 15.449219 25.277344 L 15.449219 19.984375 C 15.449219 19.660156 15.707031 19.398438 16.03125 19.398438 C 16.351562 19.398438 16.613281 19.660156 16.613281 19.984375 L 16.613281 25.277344 C 16.613281 25.601562 16.351562 25.863281 16.03125 25.863281 C 15.707031 25.863281 15.449219 25.601562 15.449219 25.277344 Z M 24.171875 60.5625 C 23.851562 60.5625 23.589844 60.300781 23.589844 59.980469 L 23.589844 57.125 C 23.589844 56.800781 23.851562 56.539062 24.171875 56.539062 C 24.496094 56.539062 24.757812 56.800781 24.757812 57.125 L 24.757812 59.980469 C 24.757812 60.300781 24.496094 60.5625 24.171875 60.5625 Z M 23.589844 49.820312 L 23.589844 23.070312 C 23.589844 22.746094 23.851562 22.484375 24.171875 22.484375 C 24.496094 22.484375 24.757812 22.746094 24.757812 23.070312 L 24.757812 49.820312 C 24.757812 50.144531 24.496094 50.402344 24.171875 50.402344 C 23.851562 50.402344 23.589844 50.144531 23.589844 49.820312 Z M 34.242188 33.839844 C 34.242188 33.515625 34.503906 33.253906 34.824219 33.253906 C 35.148438 33.253906 35.40625 33.515625 35.40625 33.839844 L 35.40625 51.792969 C 35.40625 52.117188 35.148438 52.375 34.824219 52.375 C 34.503906 52.375 34.242188 52.117188 34.242188 51.792969 Z M 34.242188 28.769531 L 34.242188 23.070312 C 34.242188 22.746094 34.503906 22.484375 34.824219 22.484375 C 35.148438 22.484375 35.40625 22.746094 35.40625 23.070312 L 35.40625 28.769531 C 35.40625 29.089844 35.148438 29.351562 34.824219 29.351562 C 34.503906 29.351562 34.242188 29.089844 34.242188 28.769531 Z M 50.875 30.5625 L 50.875 24.5 C 50.875 24.175781 51.132812 23.917969 51.457031 23.917969 C 51.78125 23.917969 52.039062 24.175781 52.039062 24.5 L 52.039062 30.5625 C 52.039062 30.886719 51.78125 31.144531 51.457031 31.144531 C 51.132812 31.144531 50.875 30.886719 50.875 30.5625 Z M 50.875 30.5625 " clip-rule="nonzero"/></clipPath><linearGradient x1="34.580002" gradientTransform="matrix(0.583051, 0, 0, 0.583943, 15.420552, 19.398662)" y1="0.00000195747" x2="34.580002" gradientUnits="userSpaceOnUse" y2="125.989996" id="f642510865"><stop stop-opacity="1" stop-color="rgb(93.699646%, 79.598999%, 34.498596%)" offset="0"/><stop stop-opacity="1" stop-color="rgb(93.64624%, 79.420471%, 34.667969%)" offset="0.0078125"/><stop stop-opacity="1" stop-color="rgb(93.537903%, 79.064941%, 35.00824%)" offset="0.015625"/><stop stop-opacity="1" stop-color="rgb(93.431091%, 78.709412%, 35.348511%)" offset="0.0234375"/><stop stop-opacity="1" stop-color="rgb(93.32428%, 78.353882%, 35.688782%)" offset="0.03125"/><stop stop-opacity="1" stop-color="rgb(93.217468%, 77.998352%, 36.027527%)" offset="0.0390625"/><stop stop-opacity="1" stop-color="rgb(93.110657%, 77.642822%, 36.367798%)" offset="0.046875"/><stop stop-opacity="1" stop-color="rgb(93.003845%, 77.287292%, 36.708069%)" offset="0.0546875"/><stop stop-opacity="1" stop-color="rgb(92.897034%, 76.931763%, 37.046814%)" offset="0.0625"/><stop stop-opacity="1" stop-color="rgb(92.788696%, 76.577759%, 37.387085%)" offset="0.0703125"/><stop stop-opacity="1" stop-color="rgb(92.681885%, 76.222229%, 37.727356%)" offset="0.078125"/><stop stop-opacity="1" stop-color="rgb(92.575073%, 75.866699%, 38.067627%)" offset="0.0859375"/><stop stop-opacity="1" stop-color="rgb(92.468262%, 75.511169%, 38.406372%)" offset="0.09375"/><stop stop-opacity="1" stop-color="rgb(92.36145%, 75.15564%, 38.746643%)" offset="0.101562"/><stop stop-opacity="1" stop-color="rgb(92.254639%, 74.80011%, 39.086914%)" offset="0.109375"/><stop stop-opacity="1" stop-color="rgb(92.147827%, 74.44458%, 39.427185%)" offset="0.117188"/><stop stop-opacity="1" stop-color="rgb(92.03949%, 74.08905%, 39.76593%)" offset="0.125"/><stop stop-opacity="1" stop-color="rgb(91.932678%, 73.733521%, 40.106201%)" offset="0.132812"/><stop stop-opacity="1" stop-color="rgb(91.825867%, 73.377991%, 40.446472%)" offset="0.140625"/><stop stop-opacity="1" stop-color="rgb(91.719055%, 73.022461%, 40.785217%)" offset="0.148438"/><stop stop-opacity="1" stop-color="rgb(91.612244%, 72.666931%, 41.125488%)" offset="0.15625"/><stop stop-opacity="1" stop-color="rgb(91.505432%, 72.311401%, 41.465759%)" offset="0.164062"/><stop stop-opacity="1" stop-color="rgb(91.398621%, 71.955872%, 41.80603%)" offset="0.171875"/><stop stop-opacity="1" stop-color="rgb(91.290283%, 71.600342%, 42.144775%)" offset="0.179688"/><stop stop-opacity="1" stop-color="rgb(91.183472%, 71.244812%, 42.485046%)" offset="0.1875"/><stop stop-opacity="1" stop-color="rgb(91.07666%, 70.889282%, 42.825317%)" offset="0.195312"/><stop stop-opacity="1" stop-color="rgb(90.969849%, 70.533752%, 43.164062%)" offset="0.203125"/><stop stop-opacity="1" stop-color="rgb(90.863037%, 70.178223%, 43.504333%)" offset="0.210938"/><stop stop-opacity="1" stop-color="rgb(90.756226%, 69.822693%, 43.844604%)" offset="0.21875"/><stop stop-opacity="1" stop-color="rgb(90.649414%, 69.467163%, 44.184875%)" offset="0.226562"/><stop stop-opacity="1" stop-color="rgb(90.541077%, 69.111633%, 44.523621%)" offset="0.234375"/><stop stop-opacity="1" stop-color="rgb(90.434265%, 68.756104%, 44.863892%)" offset="0.242188"/><stop stop-opacity="1" stop-color="rgb(90.327454%, 68.400574%, 45.204163%)" offset="0.25"/><stop stop-opacity="1" stop-color="rgb(90.220642%, 68.045044%, 45.542908%)" offset="0.257813"/><stop stop-opacity="1" stop-color="rgb(90.113831%, 67.69104%, 45.883179%)" offset="0.265625"/><stop stop-opacity="1" stop-color="rgb(90.007019%, 67.33551%, 46.22345%)" offset="0.273438"/><stop stop-opacity="1" stop-color="rgb(89.900208%, 66.97998%, 46.563721%)" offset="0.28125"/><stop stop-opacity="1" stop-color="rgb(89.79187%, 66.624451%, 46.902466%)" offset="0.289063"/><stop stop-opacity="1" stop-color="rgb(89.685059%, 66.268921%, 47.242737%)" offset="0.296875"/><stop stop-opacity="1" stop-color="rgb(89.578247%, 65.913391%, 47.583008%)" offset="0.304688"/><stop stop-opacity="1" stop-color="rgb(89.471436%, 65.557861%, 47.923279%)" offset="0.3125"/><stop stop-opacity="1" stop-color="rgb(89.364624%, 65.202332%, 48.262024%)" offset="0.320313"/><stop stop-opacity="1" stop-color="rgb(89.257812%, 64.846802%, 48.602295%)" offset="0.328125"/><stop stop-opacity="1" stop-color="rgb(89.151001%, 64.491272%, 48.942566%)" offset="0.335938"/><stop stop-opacity="1" stop-color="rgb(89.042664%, 64.135742%, 49.281311%)" offset="0.34375"/><stop stop-opacity="1" stop-color="rgb(88.935852%, 63.780212%, 49.621582%)" offset="0.351563"/><stop stop-opacity="1" stop-color="rgb(88.829041%, 63.424683%, 49.961853%)" offset="0.359375"/><stop stop-opacity="1" stop-color="rgb(88.722229%, 63.069153%, 50.302124%)" offset="0.367188"/><stop stop-opacity="1" stop-color="rgb(88.615417%, 62.713623%, 50.640869%)" offset="0.375"/><stop stop-opacity="1" stop-color="rgb(88.508606%, 62.358093%, 50.98114%)" offset="0.382813"/><stop stop-opacity="1" stop-color="rgb(88.401794%, 62.002563%, 51.321411%)" offset="0.390625"/><stop stop-opacity="1" stop-color="rgb(88.293457%, 61.647034%, 51.660156%)" offset="0.398438"/><stop stop-opacity="1" stop-color="rgb(88.186646%, 61.291504%, 52.000427%)" offset="0.40625"/><stop stop-opacity="1" stop-color="rgb(88.079834%, 60.935974%, 52.340698%)" offset="0.414063"/><stop stop-opacity="1" stop-color="rgb(87.973022%, 60.580444%, 52.680969%)" offset="0.421875"/><stop stop-opacity="1" stop-color="rgb(87.866211%, 60.224915%, 53.019714%)" offset="0.429688"/><stop stop-opacity="1" stop-color="rgb(87.759399%, 59.869385%, 53.359985%)" offset="0.4375"/><stop stop-opacity="1" stop-color="rgb(87.652588%, 59.513855%, 53.700256%)" offset="0.445313"/><stop stop-opacity="1" stop-color="rgb(87.54425%, 59.158325%, 54.039001%)" offset="0.453125"/><stop stop-opacity="1" stop-color="rgb(87.437439%, 58.804321%, 54.379272%)" offset="0.460938"/><stop stop-opacity="1" stop-color="rgb(87.330627%, 58.448792%, 54.719543%)" offset="0.46875"/><stop stop-opacity="1" stop-color="rgb(87.223816%, 58.093262%, 55.059814%)" offset="0.476562"/><stop stop-opacity="1" stop-color="rgb(87.117004%, 57.737732%, 55.39856%)" offset="0.484375"/><stop stop-opacity="1" stop-color="rgb(87.010193%, 57.382202%, 55.738831%)" offset="0.492188"/><stop stop-opacity="1" stop-color="rgb(86.903381%, 57.026672%, 56.079102%)" offset="0.5"/><stop stop-opacity="1" stop-color="rgb(86.795044%, 56.671143%, 56.417847%)" offset="0.507812"/><stop stop-opacity="1" stop-color="rgb(86.688232%, 56.315613%, 56.758118%)" offset="0.515625"/><stop stop-opacity="1" stop-color="rgb(86.581421%, 55.960083%, 57.098389%)" offset="0.523437"/><stop stop-opacity="1" stop-color="rgb(86.474609%, 55.604553%, 57.43866%)" offset="0.53125"/><stop stop-opacity="1" stop-color="rgb(86.367798%, 55.249023%, 57.777405%)" offset="0.539062"/><stop stop-opacity="1" stop-color="rgb(86.260986%, 54.893494%, 58.117676%)" offset="0.546875"/><stop stop-opacity="1" stop-color="rgb(86.154175%, 54.537964%, 58.457947%)" offset="0.554687"/><stop stop-opacity="1" stop-color="rgb(86.045837%, 54.182434%, 58.798218%)" offset="0.5625"/><stop stop-opacity="1" stop-color="rgb(85.939026%, 53.826904%, 59.136963%)" offset="0.570312"/><stop stop-opacity="1" stop-color="rgb(85.832214%, 53.471375%, 59.477234%)" offset="0.578125"/><stop stop-opacity="1" stop-color="rgb(85.725403%, 53.115845%, 59.817505%)" offset="0.585937"/><stop stop-opacity="1" stop-color="rgb(85.618591%, 52.760315%, 60.15625%)" offset="0.59375"/><stop stop-opacity="1" stop-color="rgb(85.51178%, 52.404785%, 60.496521%)" offset="0.601562"/><stop stop-opacity="1" stop-color="rgb(85.404968%, 52.049255%, 60.836792%)" offset="0.609375"/><stop stop-opacity="1" stop-color="rgb(85.296631%, 51.693726%, 61.177063%)" offset="0.617187"/><stop stop-opacity="1" stop-color="rgb(85.189819%, 51.338196%, 61.515808%)" offset="0.625"/><stop stop-opacity="1" stop-color="rgb(85.083008%, 50.982666%, 61.856079%)" offset="0.632812"/><stop stop-opacity="1" stop-color="rgb(84.976196%, 50.627136%, 62.19635%)" offset="0.640625"/><stop stop-opacity="1" stop-color="rgb(84.869385%, 50.271606%, 62.535095%)" offset="0.648437"/><stop stop-opacity="1" stop-color="rgb(84.762573%, 49.917603%, 62.875366%)" offset="0.65625"/><stop stop-opacity="1" stop-color="rgb(84.654236%, 49.562073%, 63.215637%)" offset="0.664062"/><stop stop-opacity="1" stop-color="rgb(84.547424%, 49.206543%, 63.555908%)" offset="0.671875"/><stop stop-opacity="1" stop-color="rgb(84.440613%, 48.851013%, 63.894653%)" offset="0.679687"/><stop stop-opacity="1" stop-color="rgb(84.333801%, 48.495483%, 64.234924%)" offset="0.6875"/><stop stop-opacity="1" stop-color="rgb(84.22699%, 48.139954%, 64.575195%)" offset="0.695312"/><stop stop-opacity="1" stop-color="rgb(84.120178%, 47.784424%, 64.91394%)" offset="0.703125"/><stop stop-opacity="1" stop-color="rgb(84.013367%, 47.428894%, 65.254211%)" offset="0.710937"/><stop stop-opacity="1" stop-color="rgb(83.905029%, 47.073364%, 65.594482%)" offset="0.71875"/><stop stop-opacity="1" stop-color="rgb(83.798218%, 46.717834%, 65.934753%)" offset="0.726562"/><stop stop-opacity="1" stop-color="rgb(83.691406%, 46.362305%, 66.273499%)" offset="0.734375"/><stop stop-opacity="1" stop-color="rgb(83.584595%, 46.006775%, 66.61377%)" offset="0.742187"/><stop stop-opacity="1" stop-color="rgb(83.477783%, 45.651245%, 66.954041%)" offset="0.75"/><stop stop-opacity="1" stop-color="rgb(83.370972%, 45.295715%, 67.294312%)" offset="0.757812"/><stop stop-opacity="1" stop-color="rgb(83.26416%, 44.940186%, 67.633057%)" offset="0.765625"/><stop stop-opacity="1" stop-color="rgb(83.155823%, 44.584656%, 67.973328%)" offset="0.773438"/><stop stop-opacity="1" stop-color="rgb(83.049011%, 44.229126%, 68.313599%)" offset="0.78125"/><stop stop-opacity="1" stop-color="rgb(82.9422%, 43.873596%, 68.652344%)" offset="0.789062"/><stop stop-opacity="1" stop-color="rgb(82.835388%, 43.518066%, 68.992615%)" offset="0.796875"/><stop stop-opacity="1" stop-color="rgb(82.728577%, 43.162537%, 69.332886%)" offset="0.804688"/><stop stop-opacity="1" stop-color="rgb(82.621765%, 42.807007%, 69.673157%)" offset="0.8125"/><stop stop-opacity="1" stop-color="rgb(82.514954%, 42.451477%, 70.011902%)" offset="0.820312"/><stop stop-opacity="1" stop-color="rgb(82.406616%, 42.095947%, 70.352173%)" offset="0.828125"/><stop stop-opacity="1" stop-color="rgb(82.299805%, 41.740417%, 70.692444%)" offset="0.835938"/><stop stop-opacity="1" stop-color="rgb(82.192993%, 41.384888%, 71.031189%)" offset="0.84375"/><stop stop-opacity="1" stop-color="rgb(82.086182%, 41.030884%, 71.37146%)" offset="0.851562"/><stop stop-opacity="1" stop-color="rgb(81.97937%, 40.675354%, 71.711731%)" offset="0.859375"/><stop stop-opacity="1" stop-color="rgb(81.872559%, 40.319824%, 72.052002%)" offset="0.867188"/><stop stop-opacity="1" stop-color="rgb(81.765747%, 39.964294%, 72.390747%)" offset="0.875"/><stop stop-opacity="1" stop-color="rgb(81.65741%, 39.608765%, 72.731018%)" offset="0.882812"/><stop stop-opacity="1" stop-color="rgb(81.550598%, 39.253235%, 73.071289%)" offset="0.890625"/><stop stop-opacity="1" stop-color="rgb(81.443787%, 38.897705%, 73.410034%)" offset="0.898438"/><stop stop-opacity="1" stop-color="rgb(81.336975%, 38.542175%, 73.750305%)" offset="0.90625"/><stop stop-opacity="1" stop-color="rgb(81.230164%, 38.186646%, 74.090576%)" offset="0.914062"/><stop stop-opacity="1" stop-color="rgb(81.123352%, 37.831116%, 74.430847%)" offset="0.921875"/><stop stop-opacity="1" stop-color="rgb(81.016541%, 37.475586%, 74.769592%)" offset="0.929688"/><stop stop-opacity="1" stop-color="rgb(80.908203%, 37.120056%, 75.109863%)" offset="0.9375"/><stop stop-opacity="1" stop-color="rgb(80.801392%, 36.764526%, 75.450134%)" offset="0.945312"/><stop stop-opacity="1" stop-color="rgb(80.69458%, 36.408997%, 75.790405%)" offset="0.953125"/><stop stop-opacity="1" stop-color="rgb(80.587769%, 36.053467%, 76.12915%)" offset="0.960938"/><stop stop-opacity="1" stop-color="rgb(80.480957%, 35.697937%, 76.469421%)" offset="0.96875"/><stop stop-opacity="1" stop-color="rgb(80.374146%, 35.342407%, 76.809692%)" offset="0.976562"/><stop stop-opacity="1" stop-color="rgb(80.267334%, 34.986877%, 77.148438%)" offset="0.984375"/><stop stop-opacity="1" stop-color="rgb(80.158997%, 34.631348%, 77.488708%)" offset="0.992188"/><stop stop-opacity="1" stop-color="rgb(80.052185%, 34.275818%, 77.828979%)" offset="1"/></linearGradient></defs><g clip-path="url(#ab474dde96)"><g clip-path="url(#62aff12cf8)"><path fill="url(#f642510865)" d="M 11.863281 19.398438 L 11.863281 92.96875 L 58.128906 92.96875 L 58.128906 19.398438 Z M 11.863281 19.398438 " fill-rule="nonzero"/></g></g><g fill="#0cc0df" fill-opacity="1"><g transform="translate(73.318625, 78.284907)"><g><path d="M 14.496094 -41.75 C 12.839844 -41.75 11.257812 -41.570312 10.636719 -39.757812 C -1.214844 -5.539062 -3.390625 -1.5 -3.390625 0.90625 C -3.390625 1.992188 -1.941406 3.234375 0.699219 3.234375 C 1.0625 3.234375 1.449219 3.261719 1.835938 3.261719 C 2.5625 3.261719 3.210938 3.15625 3.441406 2.484375 C 5.046875 -1.941406 7.429688 -8.050781 9.242188 -12.707031 C 13.199219 -13.175781 37.765625 -16.644531 37.765625 -30.128906 C 37.765625 -38.28125 30.90625 -40.921875 24.125 -40.921875 C 21.898438 -40.921875 19.671875 -40.636719 17.703125 -40.171875 C 17.1875 -41.699219 15.789062 -41.75 14.496094 -41.75 Z M 29.816406 -30.722656 C 29.816406 -23.371094 15.917969 -19.75 11.804688 -19.4375 L 16.644531 -32.769531 C 17.78125 -32.871094 21.378906 -33.675781 24.539062 -33.675781 C 27.359375 -33.675781 29.816406 -33.027344 29.816406 -30.722656 Z M 29.816406 -30.722656 "/></g></g></g><g fill="#0cc0df" fill-opacity="1"><g transform="translate(104.947752, 78.284907)"><g><path d="M 23.734375 -39.421875 C 23.65625 -41.234375 20.707031 -43.949219 18.792969 -43.949219 C 12.476562 -43.949219 6.367188 -31.191406 4.632812 -26.53125 C 3.289062 -22.882812 1.476562 -18.457031 0.105469 -14.441406 C -0.933594 -11.390625 -2.589844 -3.234375 -2.949219 -1.035156 C -2.949219 -0.957031 -2.976562 -0.90625 -2.976562 -0.855469 C -2.976562 0.128906 -1.578125 0.519531 -0.777344 0.519531 C 2.875 0.519531 4.167969 -3.417969 6.445312 -6.367188 C 8.335938 -8.828125 13.484375 -14.46875 16.695312 -14.519531 C 15.140625 -10.714844 11.957031 -7.117188 11.363281 -3.003906 C 11.335938 -2.796875 11.3125 -2.589844 11.3125 -2.40625 C 11.3125 0.800781 14.574219 1.320312 17.210938 1.320312 C 22.128906 1.320312 29.171875 -8 32.019531 -12.347656 L 29.949219 -15.453125 C 25.496094 -10.664062 20.058594 -5.332031 17.367188 -3.597656 C 18.714844 -7.972656 23.320312 -12.632812 23.320312 -17.210938 C 23.320312 -19.023438 22.804688 -21.433594 21.484375 -21.433594 C 17.003906 -21.433594 10.820312 -14.703125 8.980469 -13.953125 C 8.957031 -13.953125 8.929688 -13.925781 8.902344 -13.925781 C 8.828125 -13.925781 8.75 -13.976562 8.695312 -14.003906 C 9.109375 -15.476562 14.78125 -20.421875 15.894531 -21.898438 C 19.078125 -26.117188 23.734375 -33.621094 23.734375 -39.421875 Z M 18.195312 -35.355469 C 18.222656 -35.410156 18.351562 -35.382812 18.664062 -35.410156 C 17.109375 -30.050781 15.453125 -26.972656 9.785156 -19.980469 L 9.785156 -20.136719 C 9.785156 -23.789062 15.554688 -32.148438 18.195312 -35.355469 Z M 18.195312 -35.355469 "/></g></g></g><g fill="#0cc0df" fill-opacity="1"><g transform="translate(133.988571, 78.284907)"><g><path d="M 17.679688 -8.207031 C 18.222656 -9.550781 21.921875 -17.523438 21.921875 -18.609375 C 21.921875 -19.566406 21.25 -20.835938 19.386719 -20.835938 C 18.300781 -20.835938 17.136719 -20.34375 16.589844 -19.308594 C 14.574219 -15.476562 9.058594 -5.925781 6.132812 -5.925781 C 5.824219 -5.925781 5.695312 -6.316406 5.695312 -6.960938 C 5.695312 -9.164062 7.402344 -14.367188 10.222656 -17.058594 L 5.875 -21.070312 C 0.363281 -18.324219 -1.992188 -10.429688 -1.992188 -6.574219 C -1.992188 -3.777344 1.113281 -2.097656 3.289062 -2.097656 C 4.53125 -2.097656 6.082031 -2.457031 8.207031 -3.3125 C 4.582031 -0.726562 -11.285156 6.160156 -11.285156 13.070312 C -11.285156 16.359375 -7.636719 18.015625 -3.703125 18.015625 C 5.773438 18.015625 12.890625 3.027344 15.0625 -0.621094 C 16.851562 -1.761719 25.390625 -7.6875 28.679688 -12.8125 L 25.988281 -15.582031 C 23.65625 -13.304688 19.335938 -9.449219 17.679688 -8.207031 Z M -3.597656 13.71875 C -3.804688 13.71875 -3.910156 13.667969 -3.910156 13.539062 C -3.910156 12.0625 3.726562 5.773438 7.867188 2.742188 C 5.4375 6.910156 3.003906 9.316406 -0.519531 12.242188 C -1.554688 13.097656 -2.976562 13.71875 -3.597656 13.71875 Z M -3.597656 13.71875 "/></g></g></g><g fill="#0cc0df" fill-opacity="1"><g transform="translate(158.784565, 78.284907)"><g><path d="M 17.730469 -25.367188 C 17.417969 -26.917969 11.878906 -32.121094 10.199219 -32.121094 C 10.121094 -32.121094 10.070312 -32.121094 10.015625 -32.097656 C 8.671875 -29.894531 9.578125 -27.125 8.488281 -24.769531 C 7.324219 -22.261719 5.644531 -20.113281 3.777344 -18.117188 C 0.234375 -14.289062 -1.113281 -13.613281 -4.789062 -9.785156 C -5.566406 -8.980469 -5.902344 -8.488281 -5.902344 -8 C -5.902344 -6.546875 -3.363281 -6.238281 -2.457031 -6.238281 C -2.019531 -6.238281 -0.878906 -6.546875 -0.0507812 -7.246094 C 1.65625 -4.011719 5.875 -0.648438 8.929688 -0.648438 C 17.160156 -0.648438 23.554688 -8.542969 26.402344 -12.992188 C 26.480469 -13.019531 24.203125 -15.476562 24.203125 -15.660156 C 22.234375 -13.769531 21.585938 -13.226562 20.265625 -12.113281 L 19.128906 -10.613281 L 19.464844 -11.441406 C 19.492188 -11.804688 19.515625 -12.164062 19.515625 -12.527344 C 19.515625 -16.746094 17.496094 -21.277344 17.496094 -22.027344 C 17.496094 -22.957031 17.78125 -24.019531 17.78125 -24.875 C 17.78125 -25.03125 17.757812 -25.210938 17.730469 -25.367188 Z M 12.425781 -19.542969 C 13.046875 -18.246094 13.539062 -15.894531 13.539062 -13.875 C 13.539062 -10.84375 10.871094 -7.738281 7.375 -7.738281 C 6.265625 -7.738281 4.890625 -8.542969 4.246094 -9.886719 C 7.300781 -12.527344 10.636719 -15.503906 12.425781 -19.542969 Z M 12.425781 -19.542969 "/></g></g></g><g fill="#0cc0df" fill-opacity="1"><g transform="translate(181.742852, 78.284907)"><g><path d="M 7.351562 -23.605469 C 7.039062 -23.8125 6.753906 -23.917969 6.472656 -23.917969 C 3.417969 -23.917969 -1.707031 -12.242188 -1.707031 -6.832031 C -1.707031 -5.460938 -1.449219 -4.269531 -0.828125 -3.363281 C -0.15625 -2.382812 5.539062 0.492188 7.53125 0.492188 C 10.636719 0.492188 18.144531 -9.65625 19.722656 -13.019531 C 19.75 -13.148438 18.558594 -13.976562 17.574219 -15.347656 C 14.625 -12.425781 9.523438 -7.246094 6.058594 -5.539062 C 5.953125 -5.875 5.902344 -6.289062 5.902344 -6.730469 C 5.902344 -10.199219 8.800781 -16.410156 10.535156 -18.378906 C 9.914062 -20.527344 9.242188 -22.234375 7.351562 -23.605469 Z M 7.039062 -29.765625 C 7.039062 -27.28125 9.472656 -25.417969 12.449219 -25.417969 C 14.003906 -25.417969 14.546875 -26.296875 14.546875 -27.4375 C 14.546875 -30.542969 12.527344 -32.976562 11.027344 -32.976562 C 9.835938 -32.976562 8.074219 -32.820312 8.074219 -32.820312 C 7.429688 -31.835938 7.039062 -30.828125 7.039062 -29.765625 Z M 7.039062 -29.765625 "/></g></g></g><g fill="#0cc0df" fill-opacity="1"><g transform="translate(198.463326, 78.284907)"><g><path d="M 17.625 -7.167969 C 18.480469 -8.488281 21.976562 -14.339844 21.976562 -16.980469 C 21.976562 -19.207031 19.230469 -22.15625 17.238281 -22.15625 C 14.574219 -22.15625 13.460938 -23.398438 11 -23.398438 C 9.785156 -23.398438 8.515625 -23.113281 7.117188 -22.207031 C 3.675781 -19.980469 -1.761719 -13.5625 -1.761719 -9.214844 C -1.761719 -5.253906 1.476562 -0.828125 6.417969 -0.828125 C 6.625 -0.828125 6.808594 -0.828125 7.015625 -0.855469 L -4.089844 21.457031 C -3.105469 22.699219 -1.65625 23.269531 -0.0273438 23.269531 C 5.359375 14.832031 8.722656 7.945312 13.953125 -0.519531 C 16.644531 -0.726562 24.046875 -0.234375 32.820312 -12.347656 L 30.828125 -15.375 C 28.964844 -13.199219 27.203125 -11.542969 25.03125 -9.707031 C 22.90625 -7.921875 19.359375 -6.367188 17.988281 -6.367188 C 17.652344 -6.367188 17.445312 -6.472656 17.445312 -6.679688 C 17.445312 -6.808594 17.496094 -6.960938 17.625 -7.167969 Z M 9.757812 -6.210938 C 8.335938 -6.472656 7.300781 -6.886719 7.300781 -8.4375 C 7.300781 -13.40625 14.855469 -19.90625 16.152344 -19.90625 C 16.488281 -19.90625 16.589844 -18.507812 16.589844 -18.039062 C 16.589844 -13.691406 12.292969 -8.023438 9.757812 -6.210938 Z M 9.757812 -6.210938 "/></g></g></g><g fill="#0cc0df" fill-opacity="1"><g transform="translate(228.46181, 78.284907)"><g><path d="M 13.046875 -4.738281 C 13.511719 -1.347656 16.382812 0.726562 19.800781 0.726562 C 21.535156 0.726562 23.996094 -1.269531 25.210938 -2.640625 C 26.710938 -4.324219 32.742188 -12.96875 32.742188 -12.96875 L 30.386719 -15.425781 C 30.285156 -15.554688 21.378906 -6.03125 19.515625 -5.925781 C 19.023438 -5.902344 18.792969 -6.394531 18.792969 -6.753906 C 18.792969 -8.671875 22.492188 -15.894531 22.492188 -17.652344 C 22.492188 -18.816406 18.507812 -20.5 17.625 -20.5 C 17.289062 -20.5 16.953125 -20.394531 16.746094 -20.164062 C 15.195312 -18.507812 12.085938 -6.625 7.582031 -6.625 C 7.324219 -6.625 7.066406 -6.679688 6.78125 -6.753906 C 6.417969 -6.808594 6.394531 -7.636719 6.394531 -8.308594 L 6.394531 -8.773438 C 6.394531 -9.964844 8.023438 -15.710938 8.542969 -17.472656 C 8.75 -18.039062 8.851562 -18.53125 8.851562 -18.945312 C 8.851562 -20.886719 6.78125 -21.457031 4.039062 -21.535156 C 3.441406 -21.328125 2.484375 -20.964844 2.097656 -19.671875 C 1.085938 -16.175781 -1.734375 -11.855469 -1.734375 -8.28125 C -1.734375 -6.058594 -0.726562 -4.039062 1.476562 -3.183594 C 2.976562 -2.589844 5.539062 -1.140625 7.6875 -1.140625 C 9.863281 -1.140625 11.933594 -3.210938 13.046875 -4.738281 Z M 13.046875 -4.738281 "/></g></g></g><g fill="#0cc0df" fill-opacity="1"><g transform="translate(257.813226, 78.284907)"><g><path d="M 20.449219 -12.890625 C 17.601562 -10.09375 12.632812 -5.304688 8.671875 -5.304688 C 6.703125 -5.304688 6.265625 -6.132812 6.265625 -7.480469 C 6.265625 -8.75 6.546875 -9.34375 7.09375 -10.277344 C 11.597656 -12.113281 18.171875 -14.726562 18.171875 -20.527344 C 18.171875 -23.761719 16.28125 -25.445312 12.734375 -25.445312 C 6.003906 -25.445312 -1.007812 -16.359375 -1.007812 -9.757812 C -1.007812 -6.339844 0.800781 -4.0625 3.441406 -2.535156 C 4.761719 -1.761719 9.449219 0.257812 10.351562 0.257812 C 14.417969 0.257812 22.675781 -7.429688 24.925781 -10.636719 C 25.78125 -11.855469 26.425781 -13.304688 26.425781 -14.933594 C 26.425781 -15.867188 25.988281 -15.996094 25.496094 -15.996094 C 25.289062 -15.996094 25.082031 -15.96875 24.898438 -15.96875 C 23.089844 -15.96875 21.199219 -13.640625 20.449219 -12.890625 Z M 14.339844 -21.199219 C 13.382812 -19.257812 11.441406 -16.851562 9.292969 -16.667969 C 9.863281 -18.402344 11.597656 -21.121094 13.898438 -21.40625 C 14.027344 -21.40625 14.160156 -21.277344 14.339844 -21.199219 Z M 14.339844 -21.199219 "/></g></g></g></svg>